<svg xmlns="http://www.w3.org/2000/svg" id="_&#x421;&#x43B;&#x43E;&#x439;_2" data-name="&#x421;&#x43B;&#x43E;&#x439; 2" viewBox="0 0 785.43 145.34"><defs><style>      .cls-1 {        fill: #fff;      }    </style></defs><g id="Layer_1" data-name="Layer 1"><g><path class="cls-1" d="m28.43,30.57l-.64,20.52,31.85-2.14-.21,9.83-30.99-.85-.43,52.58c-.21,19.66,6.41,23.3,17.1,23.3,7.05,0,13.04-2.78,19.02-6.84l.64.64c-5.13,7.48-15.39,17.53-27.57,17.53-16.24,0-24.37-8.12-24.37-26.29,0-6.2.21-11.97.21-16.67l.43-44.89-13.47-.21v-1.07l27.57-25.43h.85Z"></path><path class="cls-1" d="m180.6,142.14v.85l-20.73-.43-21.37.43v-.85c9.4-3.42,12.18-7.48,12.61-11.97.85-9.19.85-31.63.64-44.46-.43-20.52-6.62-27.14-21.59-27.14-6.2,0-15.17,2.35-25.65,7.05-.64,16.46-1.07,46.81.21,64.55.43,4.27,2.99,8.34,12.61,11.97v.85l-21.8-.43-20.95.43v-.85c10.26-4.06,13.25-7.91,13.47-11.97,2.35-33.77,1.07-80.36.43-112l-14.53-7.27v-.64L104.3,0l-.21,63.05c11.75-11.11,23.3-17.95,34.84-17.95,16.03,0,27.79,8.98,27.79,35.69,0,8.33-.43,36.76.43,48.73.43,5.56,2.99,8.34,13.47,12.61Z"></path><path class="cls-1" d="m241.72,45.1c21.37,0,36.55,16.46,38.47,41.04l-.85.85-69.25-.43v2.78c0,24.37,14.32,42.53,38.69,42.53,10.9,0,21.59-3.63,32.06-11.97l.85.64c-9.4,16.46-23.3,24.79-40.61,24.79-27.57,0-45.74-20.52-45.74-48.09,0-29.71,21.16-52.15,46.38-52.15Zm-3.21,5.99c-14.32,0-25.65,12.4-28,30.78l51.3-2.35c-1.07-17.74-10.05-28.43-23.3-28.43Z"></path><path class="cls-1" d="m379.36,45.1c21.37,0,36.55,16.46,38.47,41.04l-.85.85-69.25-.43v2.78c0,24.37,14.32,42.53,38.69,42.53,10.9,0,21.59-3.63,32.06-11.97l.85.64c-9.4,16.46-23.3,24.79-40.61,24.79-27.57,0-45.74-20.52-45.74-48.09,0-29.71,21.16-52.15,46.38-52.15Zm-3.21,5.99c-14.32,0-25.65,12.4-28,30.78l51.3-2.35c-1.07-17.74-10.05-28.43-23.3-28.43Z"></path><path class="cls-1" d="m457.58,30.57l-.64,20.52,31.85-2.14-.21,9.83-30.99-.85-.43,52.58c-.21,19.66,6.41,23.3,17.1,23.3,7.05,0,13.04-2.78,19.02-6.84l.64.64c-5.13,7.48-15.39,17.53-27.57,17.53-16.25,0-24.37-8.12-24.37-26.29,0-6.2.21-11.97.21-16.67l.43-44.89-13.47-.21v-1.07l27.57-25.43h.85Z"></path><path class="cls-1" d="m609.75,142.14v.85l-20.73-.43-21.37.43v-.85c9.4-3.42,12.18-7.48,12.61-11.97.86-9.19.86-31.63.64-44.46-.43-20.52-6.63-27.14-21.59-27.14-6.2,0-15.18,2.35-25.65,7.05-.64,16.46-1.07,46.81.21,64.55.43,4.27,2.99,8.34,12.61,11.97v.85l-21.8-.43-20.94.43v-.85c10.26-4.06,13.25-7.91,13.47-11.97,2.35-33.77,1.07-80.36.43-112l-14.54-7.27v-.64l30.35-10.26-.21,63.05c11.76-11.11,23.3-17.95,34.84-17.95,16.03,0,27.79,8.98,27.79,35.69,0,8.33-.43,36.76.43,48.73.43,5.56,2.99,8.34,13.47,12.61Z"></path><path class="cls-1" d="m670.87,45.1c21.37,0,36.55,16.46,38.47,41.04l-.85.85-69.25-.43v2.78c0,24.37,14.32,42.53,38.69,42.53,10.9,0,21.59-3.63,32.06-11.97l.85.64c-9.4,16.46-23.3,24.79-40.61,24.79-27.57,0-45.74-20.52-45.74-48.09,0-29.71,21.16-52.15,46.38-52.15Zm-3.21,5.99c-14.32,0-25.65,12.4-28,30.78l51.3-2.35c-1.07-17.74-10.05-28.43-23.3-28.43Z"></path><path class="cls-1" d="m771.11,142.14v.85l-25.43-.43-20.95.43v-.85c10.05-4.06,12.82-7.91,13.25-11.97,2.14-20.31,1.07-48.09.64-66.9l-14.53-7.27v-.64l29.92-10.26-.22,16.03c9.41-6.63,19.24-11.76,29.5-16.67l2.14,17.95-30.78.43c-.64,16.46-.86,46.81.21,64.76.43,6.41,1.71,9.83,16.24,14.53Z"></path></g></g></svg>