<?xml version="1.0" encoding="UTF-8"?>
<svg version="1.1" xmlns="http://www.w3.org/2000/svg" width="211" height="160">
<path d="M0 0 C0 0.66 0 1.32 0 2 C0.680625 1.94199219 1.36125 1.88398437 2.0625 1.82421875 C18.89675495 1.04070954 32.42657947 8.17612772 44.9375 18.9375 C49.27754419 23.02297793 52.08179885 26.34130662 54 32 C53.75 35 53.75 35 53 37 C48.50788637 36.41737624 45.11097802 34.53339392 41.25 32.3125 C33.13992002 27.83561518 24.8343082 24.73091133 16 22 C14.26363281 21.44699219 14.26363281 21.44699219 12.4921875 20.8828125 C2.90827904 18.16561647 -6.89594472 16.91512133 -16.75 15.625 C-17.47148224 15.52733337 -18.19296448 15.42966675 -18.93630981 15.32904053 C-21.01333713 15.05168609 -23.09180245 14.7924476 -25.171875 14.5390625 C-26.3897168 14.38646973 -27.60755859 14.23387695 -28.86230469 14.07666016 C-35.32353127 13.9187995 -38.88830432 18.34864486 -43.40625 22.5078125 C-50.18626334 29.02234339 -55.51182848 35.72404041 -60 44 C-60.40476563 44.71542969 -60.80953125 45.43085937 -61.2265625 46.16796875 C-61.48179688 46.77253906 -61.73703125 47.37710938 -62 48 C-61.67 48.66 -61.34 49.32 -61 50 C-61.99 50.33 -62.98 50.66 -64 51 C-65.35759907 53.14854809 -66.56721501 55.25887278 -67.75 57.5 C-78.91669226 77.77778581 -78.91669226 77.77778581 -89.1875 81 C-92.23110252 81 -93.60974057 80.87806098 -96 79 C-100.35446739 70.07256148 -98.0802639 59.98961139 -95 51 C-94.70996094 50.1440625 -94.41992188 49.288125 -94.12109375 48.40625 C-87.32518071 29.98051089 -72.32830643 16.4219941 -55 8 C-38.74554966 0.60278933 -17.66072146 -3.91058832 0 0 Z " fill="#414141" transform="translate(153,1)"/>
<path d="M0 0 C0.33 0 0.66 0 1 0 C1.3382121 13.90427537 0.6005165 27.70763545 -0.28857422 41.57714844 C-0.94241982 52.0645913 -1.11170012 62.49320723 -1 73 C-0.34016113 73.24564697 0.31967773 73.49129395 0.99951172 73.74438477 C6.66715616 75.90220549 8.39771925 77.4236841 11 83 C14.08961458 83.97474816 14.08961458 83.97474816 17 84 C16.8125 85.875 16.8125 85.875 16 88 C13.10888212 89.52164099 11.28176588 90 8 90 C7.67 89.01 7.34 88.02 7 87 C5.515 86.505 5.515 86.505 4 86 C4 86.66 4 87.32 4 88 C0.29868466 90.36884182 -2.67699501 90.57640067 -7 90 C-10.74666052 87.79129958 -13.93233013 85.06766987 -17 82 C-16.75 79.4375 -16.75 79.4375 -16 77 C-15.34 76.67 -14.68 76.34 -14 76 C-13.34227572 72.97065509 -13.34227572 72.97065509 -13 70 C-14.52407602 68.98394932 -16.04815812 67.96790775 -17.57226562 66.9519043 C-18.91351136 66.05768563 -20.25465508 65.16331394 -21.59570312 64.26879883 C-25.09141119 61.93737657 -28.58862676 59.60829878 -32.08984375 57.28515625 C-32.745896 56.84929199 -33.40194824 56.41342773 -34.07788086 55.96435547 C-35.32154393 55.13819545 -36.56580805 54.31293919 -37.81079102 53.48876953 C-41.39199471 51.10795537 -44.90635175 48.65481698 -48.37915039 46.11816406 C-50.54808209 44.62189848 -52.85161264 43.38606961 -55.15625 42.11328125 C-58.6299608 40.01580757 -61.80264775 37.49144331 -65 35 C-64.01 34.505 -64.01 34.505 -63 34 C-60.76752543 35.26863019 -58.68542096 36.58356234 -56.56640625 38.0234375 C-55.93266586 38.44420563 -55.29892548 38.86497375 -54.64598083 39.29849243 C-52.61302463 40.64981452 -50.58747153 42.01174782 -48.5625 43.375 C-46.54009925 44.72951137 -44.51621583 46.08169067 -42.48973083 47.43008423 C-41.22722635 48.27085911 -39.96725269 49.11544926 -38.71009827 49.96420288 C-36.14780466 51.67656506 -33.94035542 53.01988153 -31 54 C-36.01504327 49.39834424 -41.07195987 44.89367713 -46.375 40.625 C-52.49578831 35.67758169 -58.25037795 30.36832076 -64 25 C-59.87255657 25 -58.95305417 26.61750496 -56 29.4375 C-55.01249176 30.3641954 -54.02285278 31.28862474 -53.03125 32.2109375 C-52.27521484 32.91428223 -52.27521484 32.91428223 -51.50390625 33.63183594 C-47.49836097 37.27584174 -43.21518885 40.60426744 -39 44 C-36.93462127 45.68400807 -34.87372653 47.37340272 -32.8125 49.0625 C-31.89082031 49.81660156 -30.96914062 50.57070312 -30.01953125 51.34765625 C-29.35308594 51.89292969 -28.68664062 52.43820313 -28 53 C-28.99 51.68 -29.98 50.36 -31 49 C-30.505 48.01 -30.505 48.01 -30 47 C-27.03 50.3 -24.06 53.6 -21 57 C-24.1594015 51.23873844 -27.43679702 45.61302144 -30.9609375 40.06640625 C-31.30382812 39.38449219 -31.64671875 38.70257813 -32 38 C-31.505 37.01 -31.505 37.01 -31 36 C-26.71 42.6 -22.42 49.2 -18 56 C-18.99 52.7 -19.98 49.4 -21 46 C-21.74185544 43.00877538 -22.3673392 40.01730536 -23 37 C-20.80576539 39.19423461 -20.20603467 40.69797168 -19.125 43.578125 C-18.77953125 44.49207031 -18.4340625 45.40601563 -18.078125 46.34765625 C-17.72234375 47.30542969 -17.3665625 48.26320312 -17 49.25 C-16.64421875 50.19230469 -16.2884375 51.13460937 -15.921875 52.10546875 C-14.1913037 56.70956328 -12.50853218 61.31726468 -11 66 C-9.35 66 -7.7 66 -6 66 C-6.51691406 64.80761719 -7.03382813 63.61523438 -7.56640625 62.38671875 C-8.23227272 60.82052578 -8.8976099 59.25410771 -9.5625 57.6875 C-10.07586914 56.50897461 -10.07586914 56.50897461 -10.59960938 55.30664062 C-10.91865234 54.54931641 -11.23769531 53.79199219 -11.56640625 53.01171875 C-12.01415405 51.96697388 -12.01415405 51.96697388 -12.47094727 50.90112305 C-13 49 -13 49 -12 46 C-10.68 48.31 -9.36 50.62 -8 53 C-7.01751476 48.9472484 -6.91840426 45.16138263 -7 41 C-6.34 41.99 -5.68 42.98 -5 44 C-4.67 41.03 -4.34 38.06 -4 35 C-3.67 35 -3.34 35 -3 35 C-1.515 17.675 -1.515 17.675 0 0 Z M-28 57 C-27.67 57.66 -27.34 58.32 -27 59 C-26.34 58.67 -25.68 58.34 -25 58 C-25.99 57.67 -26.98 57.34 -28 57 Z M-17 58 C-16 60 -16 60 -16 60 Z M-6 69 C-5 71 -5 71 -5 71 Z " fill="#3F3F3F" transform="translate(166,23)"/>
<path d="M0 0 C2.31 0 4.62 0 7 0 C7 1.65 7 3.3 7 5 C7.78375 4.938125 8.5675 4.87625 9.375 4.8125 C10.674375 4.9053125 10.674375 4.9053125 12 5 C12.66 5.99 13.32 6.98 14 8 C14.33 7.01 14.66 6.02 15 5 C26 5 37 5 48 5 C48 4.01 48 3.02 48 2 C49.32 1.67 50.64 1.34 52 1 C52.103125 1.639375 52.20625 2.27875 52.3125 2.9375 C52.539375 3.618125 52.76625 4.29875 53 5 C53.99 5.33 54.98 5.66 56 6 C56 6.99 56 7.98 56 9 C55.01 9 54.02 9 53 9 C53 10.65 53 12.3 53 14 C53.99 13.67 54.98 13.34 56 13 C55.67 14.65 55.34 16.3 55 18 C53.00045254 18.04254356 50.99958364 18.04080783 49 18 C48 17 48 17 47.90234375 15.15234375 C47.93489583 13.1015625 47.96744792 11.05078125 48 9 C47.34 9 46.68 9 46 9 C46 11.97 46 14.94 46 18 C41.66666667 18 37.33333333 18 33 18 C32.505 17.01 32.505 17.01 32 16 C31.34 16.66 30.68 17.32 30 18 C23.77205882 18.56617647 23.77205882 18.56617647 21.125 16.625 C20 15 20 15 19 13 C18.4121875 14.2375 18.4121875 14.2375 17.8125 15.5 C17.214375 16.325 16.61625 17.15 16 18 C13.3125 18.3125 13.3125 18.3125 11 18 C10.01 15.69 9.02 13.38 8 11 C8 13.31 8 15.62 8 18 C1.66666667 18 -4.66666667 18 -11 18 C-11 17.01 -11 16.02 -11 15 C-12.65 15 -14.3 15 -16 15 C-16 15.99 -16 16.98 -16 18 C-17.65 18 -19.3 18 -21 18 C-20.855625 16.865625 -20.71125 15.73125 -20.5625 14.5625 C-19.99698633 10.04646944 -19.49225191 5.52452819 -19 1 C-16.36 1 -13.72 1 -11 1 C-9.68 3.97 -8.36 6.94 -7 10 C-6.21625 9.195625 -5.4325 8.39125 -4.625 7.5625 C-2 5 -2 5 0 4 C0 2.68 0 1.36 0 0 Z M19 8 C20 10 20 10 20 10 Z M-14 9 C-13 11 -13 11 -13 11 Z M0 9 C-0.33 9.99 -0.66 10.98 -1 12 C-0.67 12.66 -0.34 13.32 0 14 C0.66 14 1.32 14 2 14 C2 12.35 2 10.7 2 9 C1.34 9 0.68 9 0 9 Z M25 13 C25 13.33 25 13.66 25 14 C26.65 14 28.3 14 30 14 C30 13.67 30 13.34 30 13 C28.35 13 26.7 13 25 13 Z " fill="#404040" transform="translate(71,136)"/>
<path d="M0 0 C0.99 0.66 1.98 1.32 3 2 C3 3.32 3 4.64 3 6 C4.92022703 7.77409808 4.92022703 7.77409808 7 9 C7.37125 8.484375 7.7425 7.96875 8.125 7.4375 C10 6 10 6 13.0625 6.125 C16 7 16 7 18 10 C17.8125 13.5625 17.8125 13.5625 17 17 C12.53940842 19.97372772 8.30913019 19.32930535 3.0625 19.3125 C1.55913086 19.33666992 1.55913086 19.33666992 0.02539062 19.36132812 C-1.42383789 19.36229492 -1.42383789 19.36229492 -2.90234375 19.36328125 C-4.22480103 19.36775269 -4.22480103 19.36775269 -5.57397461 19.37231445 C-8.45079416 18.93081804 -9.83809813 17.89947266 -12 16 C-12.39058594 16.4846875 -12.78117187 16.969375 -13.18359375 17.46875 C-16.06865812 19.90089029 -19.07419813 19.46516998 -22.72265625 19.59375 C-23.47417969 19.7278125 -24.22570312 19.861875 -25 20 C-25.66 20.99 -26.32 21.98 -27 23 C-30.625 23.1875 -30.625 23.1875 -34 23 C-34 21.35 -34 19.7 -34 18 C-32.68 18 -31.36 18 -30 18 C-29.67 14.7 -29.34 11.4 -29 8 C-24.125 8.875 -24.125 8.875 -23 10 C-22.608125 9.34 -22.21625 8.68 -21.8125 8 C-20 6 -20 6 -17.4375 5.625 C-15 6 -15 6 -13 8 C-12.67 6.35 -12.34 4.7 -12 3 C-10.35 3 -8.7 3 -7 3 C-7 6.63 -7 10.26 -7 14 C-6.67 13.67 -6.34 13.34 -6 13 C-6.061875 12.21625 -6.12375 11.4325 -6.1875 10.625 C-6 8 -6 8 -4 6.1875 C-3.01 5.5996875 -3.01 5.5996875 -2 5 C-2.33 4.34 -2.66 3.68 -3 3 C-2.01 2.01 -1.02 1.02 0 0 Z M-18 11 C-17 14 -17 14 -17 14 Z M0 11 C1 13 1 13 1 13 Z M12 11 C13 14 13 14 13 14 Z " fill="#414141" transform="translate(125,103)"/>
<path d="M0 0 C1.65 0 3.3 0 5 0 C5.33 2.31 5.66 4.62 6 7 C6.391875 6.34 6.78375 5.68 7.1875 5 C9 3 9 3 11.5 2.5625 C14.34766278 3.06084099 15.23470379 3.77015215 17 6 C17.33 5.67 17.66 5.34 18 5 C20.86267567 4.92674832 23.700719 4.90761795 26.5625 4.9375 C27.36880859 4.94201172 28.17511719 4.94652344 29.00585938 4.95117188 C31.00393756 4.96299482 33.00197783 4.98093086 35 5 C35.33 3.35 35.66 1.7 36 0 C37.65 0 39.3 0 41 0 C41.0810206 2.10353495 41.13919907 4.20795952 41.1875 6.3125 C41.23970703 8.07013672 41.23970703 8.07013672 41.29296875 9.86328125 C41 13 41 13 39.97412109 14.67553711 C36.89937285 16.73842472 33.69576975 16.38746135 30.12109375 16.328125 C28.96928368 16.32531525 28.96928368 16.32531525 27.79420471 16.32244873 C26.17273611 16.3157318 24.55128362 16.30182431 22.92993164 16.28125 C20.44336957 16.25007359 17.95744135 16.24027648 15.47070312 16.234375 C13.89582558 16.22520564 12.32095449 16.21483008 10.74609375 16.203125 C10.00024521 16.19887512 9.25439667 16.19462524 8.48594666 16.19024658 C3.23443825 16.11721913 3.23443825 16.11721913 1 15 C1 14.34 1 13.68 1 13 C0.34 13 -0.32 13 -1 13 C-1 13.99 -1 14.98 -1 16 C-4.63 16.33 -8.26 16.66 -12 17 C-12 12.48637569 -11.94486655 9.97813613 -10 6 C-6.875 4.625 -6.875 4.625 -4 4 C-3.01 4.99 -2.02 5.98 -1 7 C-1.33 7.99 -1.66 8.98 -2 10 C-1.34 10.33 -0.68 10.66 0 11 C0 7.37 0 3.74 0 0 Z M11 8 C12 11 12 11 12 11 Z " fill="#414141" transform="translate(17,106)"/>
<path d="M0 0 C5 5 5 5 6.84375 6.97265625 C9.16427355 9.15445285 11.48552591 10.6153064 14.25 12.1875 C15.84805269 13.09968326 17.43628155 14.03013646 19 15 C19 15.33 19 15.66 19 16 C-2.78 16 -24.56 16 -47 16 C-42.52929155 12.64696866 -37.74678998 9.80694021 -31.953125 10.10546875 C-30.64675359 10.32755189 -29.34200607 10.55939927 -28.0390625 10.80078125 C-24.88721805 11.10872008 -22.12842539 10.32076181 -19.08984375 9.53125 C-17 9 -17 9 -13.9375 8.625 C-8.91989171 7.55742377 -4.4365095 5.61607319 -1 1.75 C-0.67 1.1725 -0.34 0.595 0 0 Z " fill="#414141" transform="translate(188,115)"/>
<path d="M0 0 C1.98 0 3.96 0 6 0 C6.66 1.98 7.32 3.96 8 6 C8.33 5.67 8.66 5.34 9 5 C10.66617115 4.95936168 12.33388095 4.957279 14 5 C13.67 7.64 13.34 10.28 13 13 C13.66 13.33 14.32 13.66 15 14 C15 11.03 15 8.06 15 5 C19 5 23 5 27 5 C27.05382106 7.62527189 27.09358313 10.24944713 27.125 12.875 C27.14175781 13.62136719 27.15851562 14.36773437 27.17578125 15.13671875 C27.1933959 17.09194461 27.10320189 19.04742021 27 21 C25 23 25 23 23.0546875 23.1953125 C21.03645833 23.13020833 19.01822917 23.06510417 17 23 C16.505 20.525 16.505 20.525 16 18 C15.67 18 15.34 18 15 18 C10.66666667 18 6.33333333 18 2 18 C1.93941406 17.11957031 1.87882812 16.23914063 1.81640625 15.33203125 C1.73261719 14.17058594 1.64882813 13.00914062 1.5625 11.8125 C1.48128906 10.66394531 1.40007813 9.51539063 1.31640625 8.33203125 C1.04596188 5.48401829 0.62478253 2.78789518 0 0 Z M18 18 C22 19 22 19 22 19 Z " fill="#404040" transform="translate(17,136)"/>
<path d="M0 0 C4 0 8 0 12 0 C13.134375 -0.061875 14.26875 -0.12375 15.4375 -0.1875 C19 0 19 0 20.9375 1 C22.71953537 4.35441952 22.29858742 7.23779845 22 11 C20 13 20 13 16.5625 13.25 C13 13 13 13 10 11 C9.3125 7.375 9.3125 7.375 9 4 C8.34 4 7.68 4 7 4 C7 6.64 7 9.28 7 12 C5.35 12.33 3.7 12.66 2 13 C2 10.03 2 7.06 2 4 C1.34 4 0.68 4 0 4 C0 2.68 0 1.36 0 0 Z M15 8 C15 8.33 15 8.66 15 9 C16.65 9 18.3 9 20 9 C20 8.67 20 8.34 20 8 C18.35 8 16.7 8 15 8 Z " fill="#414141" transform="translate(141,141)"/>
<path d="M0 0 C0 1.32 0 2.64 0 4 C-0.99 4.33 -1.98 4.66 -3 5 C-1.35 6.65 0.3 8.3 2 10 C1.375 12.375 1.375 12.375 0 15 C-4.00733365 16.9591409 -6.73358133 17.25482902 -11 16 C-11 14.35 -11 12.7 -11 11 C-9.35 11 -7.7 11 -6 11 C-6.825 10.62875 -7.65 10.2575 -8.5 9.875 C-11 8 -11 8 -11.625 5 C-11 2 -11 2 -8.875 0.0625 C-5.45899292 -1.1999374 -3.48639678 -0.89186894 0 0 Z " fill="#414141" transform="translate(16,138)"/>
<path d="M0 0 C1.65 0 3.3 0 5 0 C5 2.64 5 5.28 5 8 C5.66 8 6.32 8 7 8 C7 5.36 7 2.72 7 0 C8.65 0 10.3 0 12 0 C12 2.97 12 5.94 12 9 C12.66 9 13.32 9 14 9 C13.67 10.32 13.34 11.64 13 13 C9.04 13 5.08 13 1 13 C-0.32229189 10.35541621 -0.09677194 8.32238699 -0.0625 5.375 C-0.05347656 4.37210938 -0.04445313 3.36921875 -0.03515625 2.3359375 C-0.02355469 1.56507813 -0.01195313 0.79421875 0 0 Z " fill="#414141" transform="translate(128,141)"/>
<path d="M0 0 C1.670625 0.061875 1.670625 0.061875 3.375 0.125 C3.33375 0.8675 3.2925 1.61 3.25 2.375 C3.18779555 5.11019287 3.18779555 5.11019287 4.4375 7.25 C4.746875 7.86875 5.05625 8.4875 5.375 9.125 C4.375 12.125 4.375 12.125 2.375 13.125 C0.0420134 13.16522391 -2.29206666 13.16820247 -4.625 13.125 C-5.50316497 9.39279887 -5.88063551 5.95953269 -5.625 2.125 C-3.625 0.125 -3.625 0.125 0 0 Z " fill="#414141" transform="translate(169.625,140.875)"/>
<path d="M0 0 C0.66 0 1.32 0 2 0 C3.41441874 2.82883747 3.31900332 4.87376745 3 8 C1.4375 9.875 1.4375 9.875 -1 11 C-5.06057664 11.36255149 -8.71129527 11.65626152 -12 9 C-12.75 6.375 -12.75 6.375 -13 4 C-11.68 3.67 -10.36 3.34 -9 3 C-8.67 3.99 -8.34 4.98 -8 6 C-5.69 6 -3.38 6 -1 6 C-1.20625 5.38125 -1.4125 4.7625 -1.625 4.125 C-1.74875 3.42375 -1.8725 2.7225 -2 2 C-1.34 1.34 -0.68 0.68 0 0 Z " fill="#414141" transform="translate(82,111)"/>
<path d="M0 0 C1.65 0 3.3 0 5 0 C5.05423638 1.91635217 5.09289963 3.83314925 5.125 5.75 C5.14820312 6.81734375 5.17140625 7.8846875 5.1953125 8.984375 C5.00487687 11.92470106 4.52670104 13.52361878 3 16 C2.01 15.67 1.02 15.34 0 15 C0 10.05 0 5.1 0 0 Z " fill="#404040" transform="translate(59,106)"/>
<path d="M0 0 C2.475 0.495 2.475 0.495 5 1 C5.3690205 11.55808656 5.3690205 11.55808656 3 16 C2.01 15.67 1.02 15.34 0 15 C0 10.05 0 5.1 0 0 Z " fill="#404040" transform="translate(86,106)"/>
<path d="M0 0 C1.2065625 0.0309375 1.2065625 0.0309375 2.4375 0.0625 C3.0975 1.3825 3.7575 2.7025 4.4375 4.0625 C2.08311267 5.49194945 0.95717567 6.14911261 -1.8125 5.6875 C-2.39 5.48125 -2.9675 5.275 -3.5625 5.0625 C-3.5625 0.08689024 -3.5625 0.08689024 0 0 Z " fill="#404040" transform="translate(77.5625,106.9375)"/>
<path d="M0 0 C3.93673644 1.31224548 6.22719294 2.91910327 9 6 C5.06326356 4.68775452 2.77280706 3.08089673 0 0 Z " fill="#3E3E3E" transform="translate(92,51)"/>
<path d="M0 0 C2.31 1.98 4.62 3.96 7 6 C6.67 6.66 6.34 7.32 6 8 C4.99403703 7.0479279 3.99538437 6.08812654 3 5.125 C2.443125 4.59132813 1.88625 4.05765625 1.3125 3.5078125 C0 2 0 2 0 0 Z " fill="#3D3D3D" transform="translate(125,59)"/>
<path d="M0 0 C2.31 1.98 4.62 3.96 7 6 C6.67 6.66 6.34 7.32 6 8 C4.99403703 7.0479279 3.99538437 6.08812654 3 5.125 C2.443125 4.59132813 1.88625 4.05765625 1.3125 3.5078125 C0 2 0 2 0 0 Z " fill="#3C3C3C" transform="translate(116,49)"/>
<path d="M0 0 C1.98 0.99 1.98 0.99 4 2 C3.01 2 2.02 2 1 2 C0.67 1.34 0.34 0.68 0 0 Z " fill="#3D3D3D" transform="translate(96,42)"/>
<path d="M0 0 C0.99 0.99 1.98 1.98 3 3 C2.01 2.67 1.02 2.34 0 2 C0 1.34 0 0.68 0 0 Z " fill="#3D3D3D" transform="translate(132,67)"/>
<path d="M0 0 C1 4 1 4 1 4 Z " fill="#3F3F3F" transform="translate(157,68)"/>
<path d="M0 0 C0.99 0.495 0.99 0.495 2 1 C1.67 1.66 1.34 2.32 1 3 C0.67 2.01 0.34 1.02 0 0 Z " fill="#3C3C3C" transform="translate(132,56)"/>
<path d="M0 0 C0.66 0.66 1.32 1.32 2 2 C1.34 2 0.68 2 0 2 C0 1.34 0 0.68 0 0 Z " fill="#3E3E3E" transform="translate(100,45)"/>
<path d="" fill="#3C3C3C" transform="translate(0,0)"/>
<path d="" fill="#3F3F3F" transform="translate(0,0)"/>
<path d="" fill="#3F3F3F" transform="translate(0,0)"/>
<path d="" fill="#3C3C3C" transform="translate(0,0)"/>
<path d="" fill="#3C3C3C" transform="translate(0,0)"/>
<path d="" fill="#3C3C3C" transform="translate(0,0)"/>
<path d="" fill="#3C3C3C" transform="translate(0,0)"/>
<path d="" fill="#3F3F3F" transform="translate(0,0)"/>
</svg>
