<svg xmlns="http://www.w3.org/2000/svg" width="120" height="120.001" viewBox="0 0 120 120.001">
  <g id="Group_143" data-name="Group 143" transform="translate(-58.264 -393.234)">
    <rect id="Rectangle_114" data-name="Rectangle 114" width="120" height="120.001" transform="translate(58.264 393.234)" fill="none"/>
    <g id="Group_140" data-name="Group 140" transform="translate(96.246 406.431)">
      <path id="Path_85" data-name="Path 85" d="M141.692,467.6v-6l0-14.24-6.023-3.484v22.041a15.864,15.864,0,0,1-3.01.891V452.583l-6.024,3.483,0,10.741a16.049,16.049,0,0,1-12.991-15.743c0-10.909,11.127-25.636,15.994-31.549,4.009,5.1,12.341,15.138,15.388,26.75l6.629,3.825c-.926-16.523-19.055-36.389-19.777-37.253l-2.241-2.457-2.217,2.457c-.809.891-19.8,22.006-19.8,38.226a22.006,22.006,0,0,0,34.082,18.461v-1.763h0Z" transform="translate(-107.61 -410.38)" fill="#1d4366"/>
      <path id="Path_86" data-name="Path 86" d="M155.8,478.944a21.98,21.98,0,0,0,6.809-13.409L155.8,461.6Z" transform="translate(-118.707 -422.175)" fill="#1d4366"/>
    </g>
    <g id="Group_141" data-name="Group 141" transform="translate(77.664 475.511)">
      <path id="Path_87" data-name="Path 87" d="M95.458,505.883a6.134,6.134,0,0,1-.451,2.387,5.448,5.448,0,0,1-1.252,1.85,5.586,5.586,0,0,1-1.905,1.189,7.01,7.01,0,0,1-4.781,0,5.6,5.6,0,0,1-1.9-1.189,5.438,5.438,0,0,1-1.252-1.85,6.134,6.134,0,0,1-.451-2.387,6.059,6.059,0,0,1,.451-2.387,5.221,5.221,0,0,1,1.252-1.812,5.582,5.582,0,0,1,1.9-1.151,7.275,7.275,0,0,1,4.781,0,5.573,5.573,0,0,1,1.905,1.151,5.231,5.231,0,0,1,1.252,1.812A6.058,6.058,0,0,1,95.458,505.883Zm-2.846,0a3.78,3.78,0,0,0-.233-1.338,3.2,3.2,0,0,0-.645-1.065,2.985,2.985,0,0,0-1-.7,3.157,3.157,0,0,0-1.283-.256,3.06,3.06,0,0,0-2.271.956,3.036,3.036,0,0,0-.645,1.065,4.127,4.127,0,0,0,.008,2.713,3.262,3.262,0,0,0,.646,1.081,2.952,2.952,0,0,0,.987.707,3.3,3.3,0,0,0,2.55,0,3.034,3.034,0,0,0,1-.707,3.19,3.19,0,0,0,.653-1.081A3.931,3.931,0,0,0,92.612,505.883Z" transform="translate(-83.469 -500.129)" fill="#1d4366"/>
      <path id="Path_88" data-name="Path 88" d="M107.9,511.522l-4.432-7.2h-.047l.062,7.2H100.9V500.513h3.032l4.416,7.184h.047l-.062-7.184h2.582v11.009Z" transform="translate(-87.483 -500.217)" fill="#1d4366"/>
      <path id="Path_89" data-name="Path 89" d="M116.644,511.522V500.513h7.4v2.239h-4.836v2.084h4.571v2.131h-4.571v2.285h5.116v2.271Z" transform="translate(-91.109 -500.217)" fill="#1d4366"/>
      <path id="Path_90" data-name="Path 90" d="M154.066,511.522l-2.39-4.37h-.907v4.37h-2.6V500.513h4.2a7.262,7.262,0,0,1,1.547.163,4.01,4.01,0,0,1,1.353.552,2.9,2.9,0,0,1,.956,1.026,3.207,3.207,0,0,1,.358,1.586,2.925,2.925,0,0,1-.607,1.881,3.306,3.306,0,0,1-1.679,1.089l2.877,4.711Zm-.109-7.635a1.1,1.1,0,0,0-.165-.63,1.132,1.132,0,0,0-.422-.373,1.84,1.84,0,0,0-.578-.179,4.328,4.328,0,0,0-.617-.046h-1.422v2.565h1.265a4.232,4.232,0,0,0,.673-.055,2.141,2.141,0,0,0,.624-.194,1.131,1.131,0,0,0,.641-1.088Z" transform="translate(-98.37 -500.217)" fill="#1d4366"/>
      <path id="Path_91" data-name="Path 91" d="M142.413,503.374a4.616,4.616,0,0,0-1.431-1.687,5.768,5.768,0,0,0-2.021-.9,9.86,9.86,0,0,0-2.3-.272h-3.981v11.009h4.106a8.038,8.038,0,0,0,2.239-.319,5.92,5.92,0,0,0,1.983-1,5.036,5.036,0,0,0,1.415-1.726,5.418,5.418,0,0,0,.536-2.5A5.669,5.669,0,0,0,142.413,503.374Zm-2.527,4.152a2.655,2.655,0,0,1-.808,1,3.268,3.268,0,0,1-1.166.536,5.743,5.743,0,0,1-1.376.163h-1.26v-6.438H136.6a5.686,5.686,0,0,1,1.33.156,3.246,3.246,0,0,1,1.151.521,2.6,2.6,0,0,1,.808.98,4.079,4.079,0,0,1,0,3.086Z" transform="translate(-94.802 -500.217)" fill="#1d4366"/>
      <path id="Path_92" data-name="Path 92" d="M186.465,503.9a3.385,3.385,0,0,1-.358,1.625,2.938,2.938,0,0,1-.964,1.065,4.245,4.245,0,0,1-1.4.59,7.155,7.155,0,0,1-1.648.187h-1.322v4.152h-2.659V500.513h4.043a7.587,7.587,0,0,1,1.687.179,3.985,3.985,0,0,1,1.368.575,2.79,2.79,0,0,1,.917,1.042A3.433,3.433,0,0,1,186.465,503.9Zm-2.659.015a1.188,1.188,0,0,0-.155-.637,1.09,1.09,0,0,0-.42-.39,1.791,1.791,0,0,0-.6-.186,5.058,5.058,0,0,0-.692-.046h-1.167v2.6h1.12a3.987,3.987,0,0,0,.715-.062,1.914,1.914,0,0,0,.614-.217,1.172,1.172,0,0,0,.428-.413A1.229,1.229,0,0,0,183.806,503.918Z" transform="translate(-105.266 -500.217)" fill="#1d4366"/>
      <path id="Path_93" data-name="Path 93" d="M172.08,503.591a5.234,5.234,0,0,0-1.252-1.811,5.573,5.573,0,0,0-1.905-1.152,7.275,7.275,0,0,0-4.781,0,5.579,5.579,0,0,0-1.9,1.152,5.226,5.226,0,0,0-1.252,1.811,6.063,6.063,0,0,0-.451,2.387,6.134,6.134,0,0,0,.451,2.387,5.423,5.423,0,0,0,1.252,1.85,5.583,5.583,0,0,0,1.9,1.19,7.024,7.024,0,0,0,4.781,0,5.576,5.576,0,0,0,1.905-1.19,5.432,5.432,0,0,0,1.252-1.85,6.134,6.134,0,0,0,.451-2.387A6.063,6.063,0,0,0,172.08,503.591Zm-5.573,5.8a2.949,2.949,0,0,1-2.949-2.949c0-1.83,1.795-4.043,2.6-4.942a.506.506,0,0,1,.76,0c.788.9,2.539,3.11,2.539,4.938A2.949,2.949,0,0,1,166.506,509.4Z" transform="translate(-101.219 -500.151)" fill="#1d4366"/>
    </g>
    <g id="Group_142" data-name="Group 142" transform="translate(82.755 492.122)">
      <path id="Path_94" data-name="Path 94" d="M91.2,529.962H90.083v-7.988H91.2Z" transform="translate(-90.083 -521.771)" fill="#1d4366"/>
      <path id="Path_95" data-name="Path 95" d="M99.686,528.36h.022v-6.386h1.117v7.988h-1.41L95.2,523.44h-.022v6.522H94.056v-7.988h1.455Z" transform="translate(-90.998 -521.771)" fill="#1d4366"/>
      <path id="Path_96" data-name="Path 96" d="M108.01,528.518h.035l2.4-6.544h1.207l-3.137,7.988h-1.038l-3.114-7.988h1.242Z" transform="translate(-93.372 -521.771)" fill="#1d4366"/>
      <path id="Path_97" data-name="Path 97" d="M116.467,528.969h4.175v.993H115.35v-7.988h5.122v.981h-4.006v2.392h3.769v.959h-3.769Z" transform="translate(-95.902 -521.771)" fill="#1d4366"/>
      <path id="Path_98" data-name="Path 98" d="M128.542,523.391a1.784,1.784,0,0,0-.643-.536,1.965,1.965,0,0,0-.914-.209,2.11,2.11,0,0,0-.547.073,1.509,1.509,0,0,0-.5.237,1.3,1.3,0,0,0-.366.406,1.142,1.142,0,0,0-.141.582,1.067,1.067,0,0,0,.129.547,1.184,1.184,0,0,0,.35.372,2.208,2.208,0,0,0,.519.259q.3.107.637.22.408.125.824.282a2.923,2.923,0,0,1,.757.417,2.063,2.063,0,0,1,.553.649,2.037,2.037,0,0,1,.215.988,2.363,2.363,0,0,1-.232,1.078,2.211,2.211,0,0,1-.615.756,2.615,2.615,0,0,1-.886.446,3.663,3.663,0,0,1-1.032.146,3.765,3.765,0,0,1-1.461-.293,2.9,2.9,0,0,1-1.168-.869l.869-.733a2.132,2.132,0,0,0,.756.677,2.1,2.1,0,0,0,1.027.259,2.077,2.077,0,0,0,.565-.079,1.555,1.555,0,0,0,.513-.248,1.36,1.36,0,0,0,.378-.423,1.206,1.206,0,0,0,.147-.614,1.115,1.115,0,0,0-.152-.6,1.346,1.346,0,0,0-.412-.412,2.762,2.762,0,0,0-.6-.288q-.344-.118-.727-.242a6.112,6.112,0,0,1-.757-.276,2.629,2.629,0,0,1-.666-.417,1.923,1.923,0,0,1-.473-.627,2.1,2.1,0,0,1-.181-.925,2.053,2.053,0,0,1,.242-1.027,2.219,2.219,0,0,1,.632-.711,2.644,2.644,0,0,1,.881-.412,3.853,3.853,0,0,1,.987-.129,3.44,3.44,0,0,1,1.309.249,2.607,2.607,0,0,1,.981.665Z" transform="translate(-97.898 -521.71)" fill="#1d4366"/>
      <path id="Path_99" data-name="Path 99" d="M146.134,528.112h.022l2.358-6.138h1.738v7.988h-1.117v-6.68h-.022l-2.652,6.68h-.71l-2.641-6.68h-.022v6.68H142v-7.988h1.738Z" transform="translate(-102.04 -521.771)" fill="#1d4366"/>
      <path id="Path_100" data-name="Path 100" d="M170.267,528.36h.023v-6.386h1.117v7.988H170l-4.219-6.522h-.023v6.522h-1.117v-7.988h1.456Z" transform="translate(-107.253 -521.771)" fill="#1d4366"/>
      <path id="Path_101" data-name="Path 101" d="M177.748,522.988H175.4v-1.016h5.788v1.016h-2.352v6.974h-1.084Z" transform="translate(-109.731 -521.77)" fill="#1d4366"/>
      <path id="Path_102" data-name="Path 102" d="M134.95,522.988H132.6v-1.016h5.789v1.016h-2.352v6.974H134.95Z" transform="translate(-99.874 -521.77)" fill="#1d4366"/>
      <path id="Path_103" data-name="Path 103" d="M155.535,521.972H160.8v1.016h-4.184v2.381h3.9v1.016h-3.9v2.562h4.387v1.015h-5.47Z" transform="translate(-105.157 -521.77)" fill="#1d4366"/>
    </g>
  </g>
</svg>
