<?xml version="1.0" encoding="UTF-8"?> <svg xmlns="http://www.w3.org/2000/svg" width="183" height="26" viewBox="0 0 183 26" fill="none"><g clip-path="url(#clip0_115_10970)"><path d="M32.6112 20.7641L13.9555 0.865446H10.0337V25.9988H13.3785V6.06198L32.2759 25.9988H35.956V0.865446H32.6112V20.7641ZM42.6457 25.9988H45.9905V14.7321H63.5508V11.2654H45.9905V4.33211H63.5508V0.865446H42.6457V25.9988ZM102.016 20.7641L83.3605 0.865446H80.2749V25.9988H83.6197V6.06198L102.517 25.9988H105.361V0.865446H102.016V20.7641ZM122.085 3.46545H132.956V25.9988H136.301V3.46545H147.171V-0.0012207H122.085V3.46545Z" fill="#231815"></path><path d="M155.009 0.865479H150.657L160.969 13.4096L150.614 25.9988H154.966L165.319 13.4096L155.009 0.865479Z" fill="#1B67B2"></path><path d="M182.999 0.865479H178.118L171.137 9.35275L173.577 12.3228L182.999 0.865479Z" fill="#231815"></path><path d="M162.074 0.865446H157.723L168.034 13.4096L157.68 25.9988H162.031L172.385 13.4096L162.074 0.865446ZM112.051 5.19878H115.396V25.9988H112.051V5.19878ZM112.051 -0.0012207H115.396V3.46545H112.051V-0.0012207ZM69.4043 5.19878H72.7491V25.9988H69.4043V5.19878ZM69.4043 -0.0012207H72.7491V3.46545H69.4043V-0.0012207Z" fill="#1B67B2"></path><path d="M-0.000732422 0.865479H3.34409V25.9988H-0.000732422V0.865479Z" fill="#231815"></path></g><defs><clipPath id="clip0_115_10970"><rect width="183" height="26" fill="white" transform="translate(-0.000732422 -0.0012207)"></rect></clipPath></defs></svg> 