<?xml version="1.0" encoding="UTF-8"?> <svg xmlns="http://www.w3.org/2000/svg" width="241" height="55" viewBox="0 0 241 55" fill="none"><g clip-path="url(#clip0_115_10962)"><path d="M65.6321 10.8194C65.6321 7.10238 65.6321 6.44358 65.5964 5.68398C65.5571 4.92438 65.3643 4.49238 64.611 4.32858C64.356 4.2761 64.0965 4.24956 63.8362 4.24938C63.7452 4.24938 63.6523 4.20438 63.6523 4.10358C63.6523 4.00278 63.7702 3.92358 64.0183 3.92358C65.0412 3.92358 66.3855 3.99198 66.5211 3.99198C66.655 3.99198 68.0475 3.92358 68.7312 3.92358C68.9847 3.92358 69.0918 3.96858 69.0918 4.10358C69.0918 4.23858 69.0008 4.24938 68.9133 4.24938C68.7223 4.25838 68.5313 4.28538 68.3438 4.32858C67.7315 4.44198 67.5476 4.85058 67.4994 5.68398C67.4512 6.51738 67.4566 7.10238 67.4566 10.8194V12.2414H67.5476C67.935 11.7914 72.0552 7.41738 72.8782 6.48858C73.5137 5.79738 74.101 5.17818 74.101 4.80198C74.1151 4.69717 74.0938 4.59062 74.0403 4.49958C73.9879 4.40986 73.9057 4.34166 73.8083 4.30698C73.6922 4.25478 73.5994 4.20978 73.5994 4.10898C73.5994 4.00818 73.7137 3.95238 73.8743 3.95238C74.326 3.95238 75.0347 4.01898 75.5845 4.01898C75.6916 4.01898 77.1983 3.95238 77.7696 3.95238C78.0177 3.95238 78.1088 3.99738 78.1088 4.10898C78.1088 4.22238 78.0606 4.27818 77.8767 4.27818C77.4351 4.30057 77.0028 4.41519 76.6074 4.61478C75.672 5.03778 75.1704 5.64078 74.1492 6.65778C73.578 7.21938 69.6149 11.2748 69.14 11.8724C69.7327 12.5528 74.467 17.6828 75.4024 18.5774C77.3126 20.4386 77.7 20.8274 78.7907 21.2936C79.2406 21.479 79.719 21.5816 80.201 21.5978C80.3617 21.5978 80.5027 21.6482 80.5027 21.7544C80.5027 21.8624 80.3831 21.9344 79.9957 21.9344H78.8389C78.1998 21.9344 77.7642 21.9344 77.268 21.8894C76.0576 21.7778 75.4935 21.2486 74.5152 20.4386C73.5351 19.6286 68.6455 14.0828 67.553 12.677H67.4405V15.0044C67.4405 17.294 67.4405 19.1732 67.553 20.1632C67.6244 20.8652 67.7583 21.389 68.4456 21.4844C68.758 21.524 69.1239 21.569 69.3292 21.569C69.5327 21.569 69.506 21.641 69.506 21.7274C69.506 21.8102 69.3989 21.9074 69.1507 21.9074C68.0314 21.9074 66.7086 21.839 66.5319 21.839C66.3533 21.839 65.0252 21.9074 64.3468 21.9074C64.0933 21.9074 63.9808 21.8624 63.9808 21.7274C63.9808 21.5924 64.0237 21.569 64.1593 21.569C64.3878 21.5618 64.6163 21.533 64.8413 21.4844C65.2983 21.389 65.4125 20.867 65.5018 20.1632C65.6161 19.1732 65.6161 17.294 65.6161 15.0044L65.6321 10.8194Z" fill="black"></path><path d="M87.5418 7.01789C87.7935 6.34289 87.8864 6.22949 88.0202 6.22949C88.1541 6.22949 88.288 6.51749 88.4987 6.96749C88.8593 7.82249 92.0655 16.1745 93.2973 19.2525C94.0238 21.0525 94.5665 21.3099 95.0092 21.4629C95.2681 21.5349 95.5359 21.5709 95.8054 21.5709C95.9125 21.5709 96.0518 21.6195 96.0518 21.7509C96.0518 21.8787 95.8322 21.9075 95.5948 21.9075C95.3574 21.9075 93.8239 21.9075 92.4314 21.8625C92.0441 21.8625 91.7263 21.8625 91.7263 21.7275C91.7263 21.5925 91.7745 21.6195 91.8673 21.5691C91.9458 21.5379 92.0116 21.481 92.054 21.4075C92.0964 21.3341 92.1131 21.2483 92.1012 21.1641C92.0937 21.1083 92.0742 21.0549 92.0441 21.0075L90.2464 16.3653C90.1982 16.2825 90.1821 16.2591 90.0696 16.2591H85.4424C85.3973 16.2578 85.3531 16.2725 85.3175 16.3005C85.2806 16.33 85.2548 16.3712 85.2443 16.4175L84.1035 19.6503C83.9325 20.0835 83.8324 20.5419 83.8072 21.0075C83.8072 21.4179 84.1464 21.5691 84.4963 21.5691H84.6748C84.8301 21.5691 84.8783 21.6411 84.8783 21.7491C84.8783 21.8571 84.7605 21.9075 84.5766 21.9075C84.1035 21.9075 83.011 21.8391 82.7861 21.8391C82.5594 21.8391 81.5811 21.9075 80.7581 21.9075C80.5046 21.9075 80.3707 21.8625 80.3707 21.7491C80.3718 21.7006 80.3909 21.6544 80.4243 21.6195C80.4413 21.6028 80.4614 21.5898 80.4835 21.5811C80.5056 21.5725 80.5291 21.5684 80.5528 21.5691C80.7492 21.5655 80.9456 21.5511 81.1401 21.5241C82.0542 21.4125 82.4469 20.6871 82.8289 19.6683L87.5418 7.01789ZM89.7733 15.4545C89.8608 15.4545 89.8608 15.4041 89.8447 15.3087L87.8578 9.77369C87.7507 9.45869 87.6257 9.45869 87.5186 9.77369L85.6477 15.3087C85.6477 15.4041 85.6477 15.4545 85.7191 15.4545H89.7733ZM98.1458 21.6087C97.8763 21.4737 97.8495 21.3999 97.8495 20.8545C97.8495 19.8465 97.9459 19.0365 97.9619 18.7125C97.9619 18.4965 98.0101 18.3741 98.1226 18.3741C98.2369 18.3741 98.3118 18.4461 98.3118 18.6171C98.3065 18.8619 98.3279 19.1067 98.3761 19.3479C98.6939 20.8329 100.195 21.3495 101.539 21.3495C103.519 21.3495 104.547 20.1795 104.547 18.6621C104.547 17.1429 103.794 16.5237 102.013 15.1395L101.109 14.4195C98.9563 12.7329 98.2351 11.4945 98.2351 10.0941C98.2351 7.70909 100.038 6.27989 102.68 6.27989C103.375 6.28529 104.067 6.36809 104.746 6.52289C104.976 6.58769 105.213 6.62009 105.451 6.61829C105.611 6.61829 105.66 6.64529 105.66 6.76949C105.595 7.48038 105.565 8.19405 105.57 8.90789C105.57 9.22289 105.57 9.35789 105.408 9.35789C105.247 9.35789 105.251 9.25529 105.229 9.09869C105.167 8.7556 105.059 8.42259 104.908 8.10869C104.772 7.87289 104.11 7.10069 102.32 7.10069C100.856 7.10069 99.6293 7.87289 99.6293 9.28949C99.6293 10.5891 100.243 11.3199 102.223 12.7275L102.794 13.1253C105.229 14.8641 106.074 16.2753 106.074 18.0033C106.085 18.7017 105.915 19.3893 105.586 19.9977C105.262 20.601 104.785 21.1067 104.203 21.4629C103.369 22.0245 102.109 22.1649 101.018 22.1649C100.032 22.1839 99.0548 21.9944 98.1458 21.6087ZM111.901 12.4683C111.901 9.31829 111.901 8.74949 111.847 8.10869C111.794 7.46789 111.686 7.07909 111.029 6.98369C110.803 6.95658 110.574 6.94156 110.346 6.93869C110.308 6.92941 110.273 6.90944 110.246 6.88109C110.218 6.8515 110.199 6.81475 110.19 6.77489C110.19 6.65249 110.282 6.60029 110.503 6.60029C111.417 6.60029 112.622 6.65249 112.809 6.65249C112.999 6.65249 114.241 6.60029 114.834 6.60029C115.066 6.60029 115.173 6.65249 115.173 6.77489C115.162 6.81818 115.138 6.85711 115.105 6.88649C115.073 6.91572 115.032 6.93398 114.989 6.93869C114.821 6.93607 114.654 6.95115 114.489 6.98369C113.95 7.07369 113.848 7.43369 113.811 8.10869C113.773 8.78369 113.763 9.31829 113.763 12.4683V15.2799C113.763 18.2103 114.375 19.4199 115.237 20.2371C115.633 20.6259 116.103 20.9229 116.615 21.1119C117.129 21.2991 117.674 21.3729 118.217 21.3279C118.797 21.3333 119.37 21.2109 119.902 20.9679C120.436 20.723 120.913 20.3658 121.3 19.9203C122.224 18.7971 122.44 17.1087 122.44 15.0225V12.4665C122.44 9.31649 122.414 8.74949 122.387 8.10869C122.358 7.46789 122.251 7.07909 121.589 6.98369C121.364 6.95676 121.137 6.94174 120.911 6.93869C120.87 6.93352 120.832 6.91447 120.803 6.88469C120.775 6.85541 120.756 6.81755 120.75 6.77669C120.75 6.65069 120.837 6.60029 121.062 6.60029C121.949 6.60029 123.112 6.65249 123.215 6.65249C123.317 6.65249 124.29 6.60029 124.899 6.60029C125.131 6.60029 125.216 6.65249 125.216 6.77489C125.211 6.81699 125.192 6.85618 125.163 6.88649C125.134 6.91573 125.096 6.93415 125.056 6.93869C124.887 6.93593 124.719 6.95102 124.554 6.98369C124.017 7.09529 123.894 7.43369 123.849 8.10869C123.806 8.78369 123.849 9.31829 123.849 12.4683V14.6283C123.849 16.8225 123.569 19.2741 121.976 20.6871C120.819 21.7131 119.334 22.2441 117.819 22.1721C117.151 22.1721 115.069 22.1253 113.648 20.7483C112.649 19.7925 111.901 18.3849 111.901 15.4203V12.4683ZM145.084 19.3137C145.159 20.0337 145.293 21.1245 146.11 21.4125C146.531 21.5457 146.967 21.6123 147.408 21.6087C147.497 21.6087 147.563 21.6537 147.563 21.7599C147.563 21.8679 147.385 21.9399 147.149 21.9399C146.703 21.9399 144.459 21.9399 143.743 21.8499C143.265 21.7959 143.172 21.7383 143.172 21.6303C143.174 21.5925 143.19 21.5547 143.213 21.5259C143.237 21.4975 143.271 21.479 143.307 21.4737C143.422 21.4449 143.448 21.1353 143.406 20.7537L142.447 10.4757H142.399L137.557 20.7987C137.147 21.6807 137.018 21.8733 136.847 21.8733C136.675 21.8733 136.561 21.6825 136.174 20.9445C135.359 19.3968 134.576 17.8328 133.823 16.2537C133.232 14.9649 131.623 11.5683 131.274 10.7403H131.182L130.413 19.8699C130.386 20.1759 130.386 20.5629 130.386 20.8995C130.385 21.0378 130.433 21.172 130.522 21.2775C130.611 21.3819 130.733 21.4467 130.865 21.4629C131.118 21.5259 131.379 21.5619 131.639 21.5709C131.679 21.5741 131.716 21.5913 131.745 21.6195C131.773 21.6487 131.791 21.6868 131.795 21.7275C131.795 21.8625 131.661 21.9075 131.44 21.9075C130.686 21.9075 129.729 21.8391 129.569 21.8391C129.408 21.8391 128.433 21.9075 127.891 21.9075C127.68 21.9075 127.544 21.8625 127.544 21.7275C127.544 21.5925 127.637 21.5691 127.744 21.5691C127.944 21.5619 128.144 21.5403 128.34 21.5025C129.003 21.3891 129.024 20.6529 129.115 19.8825L130.574 6.67949C130.574 6.46529 130.686 6.31949 130.8 6.31949C130.89 6.32489 130.975 6.35729 131.049 6.41129C131.12 6.46529 131.175 6.54269 131.209 6.62909L137.261 19.1949L143.104 6.65789C143.19 6.46529 143.282 6.31949 143.415 6.31949C143.55 6.31949 143.668 6.48869 143.711 6.88289L145.084 19.3137ZM154.077 16.0395C154.077 17.9745 154.077 19.5783 154.17 20.4099C154.235 21.0021 154.304 21.3891 154.895 21.4845C155.191 21.5241 155.627 21.5691 155.806 21.5691C155.828 21.5691 155.85 21.574 155.87 21.5833C155.891 21.5926 155.909 21.6062 155.923 21.6231C155.938 21.6401 155.95 21.6601 155.957 21.6817C155.965 21.7034 155.968 21.7263 155.966 21.7491C155.966 21.8391 155.875 21.9075 155.648 21.9075C154.536 21.9075 153.233 21.8391 153.142 21.8391C153.051 21.8391 151.776 21.9075 151.168 21.9075C150.957 21.9075 150.846 21.8625 150.846 21.7491C150.844 21.7149 150.852 21.6809 150.869 21.6514C150.886 21.6218 150.912 21.5982 150.943 21.5835C150.963 21.5742 150.985 21.5693 151.007 21.5691C151.21 21.5619 151.414 21.5331 151.614 21.4845C152.007 21.3891 152.078 21.0021 152.153 20.4099C152.255 19.5783 152.271 17.9745 152.271 16.0395V12.4683C152.271 9.31829 152.271 8.74949 152.228 8.10869C152.185 7.46789 152.023 7.10069 151.592 7.01789C151.389 6.9741 151.182 6.94999 150.975 6.94589C150.934 6.94116 150.896 6.92204 150.868 6.89189C150.839 6.86132 150.822 6.82205 150.818 6.78029C150.818 6.65789 150.909 6.60749 151.135 6.60749C151.792 6.60749 153.051 6.65789 153.158 6.65789C153.265 6.65789 154.551 6.60749 155.159 6.60749C155.391 6.60749 155.481 6.65789 155.481 6.78029C155.472 6.82099 155.452 6.85842 155.423 6.88829C155.395 6.91657 155.359 6.93595 155.32 6.94409C155.152 6.94045 154.985 6.95555 154.82 6.98909C154.283 7.10249 154.16 7.39409 154.117 8.11409C154.072 8.83409 154.117 9.32369 154.117 12.4737L154.077 16.0395ZM171.676 16.7415C171.676 15.0999 171.628 14.8641 170.805 14.6949C170.648 14.6949 170.305 14.6499 170.126 14.6499C170.086 14.6433 170.048 14.6238 170.019 14.5941C169.99 14.5633 169.972 14.5243 169.966 14.4825C169.966 14.3475 170.055 14.3187 170.282 14.3187C171.192 14.3187 172.536 14.3691 172.649 14.3691C172.761 14.3691 173.995 14.3187 174.607 14.3187C174.834 14.3187 174.93 14.3475 174.93 14.4807C174.923 14.5227 174.904 14.5616 174.875 14.5923C174.846 14.6224 174.809 14.6426 174.768 14.6499C174.6 14.6461 174.432 14.6612 174.268 14.6949C173.731 14.7975 173.559 15.0999 173.515 15.8199C173.472 16.5399 173.515 17.0637 173.515 17.9187V20.1687C173.515 21.1083 173.488 21.1299 173.241 21.2937C171.906 21.9114 170.449 22.219 168.98 22.1937C167.457 22.1937 164.612 22.0137 162.384 20.0337C161.62 19.2944 161.015 18.4041 160.608 17.4183C160.195 16.4225 159.987 15.3528 159.995 14.2737C159.95 12.9616 160.235 11.6593 160.824 10.4883C161.403 9.33286 162.27 8.34953 163.341 7.63529C164.959 6.70394 166.807 6.25746 168.668 6.34829C169.699 6.35726 170.726 6.47002 171.735 6.68489C172.265 6.81089 172.806 6.87929 173.349 6.89369C173.554 6.89369 173.602 6.99449 173.602 7.09169C173.516 8.03849 173.477 8.99069 173.482 9.94289C173.482 10.2795 173.397 10.3695 173.263 10.3695C173.127 10.3695 173.122 10.2579 173.122 10.0653C173.072 9.59032 172.916 9.13299 172.665 8.72789C172.165 7.96289 170.642 7.15829 168.045 7.15829C166.538 7.06652 165.051 7.53036 163.858 8.46329C162.698 9.39749 161.879 11.1975 161.879 13.5591C161.86 15.6255 162.617 17.6226 163.998 19.1499C164.667 19.8359 165.468 20.3783 166.351 20.7447C167.227 21.1083 168.166 21.2847 169.109 21.2667C169.844 21.3063 170.578 21.1785 171.262 20.8941C171.508 20.7483 171.67 20.6583 171.67 20.2749L171.676 16.7433V16.7415ZM183.71 7.01789C183.963 6.34289 184.054 6.22949 184.194 6.22949C184.335 6.22949 184.463 6.51749 184.668 6.96749C185.027 7.82249 188.241 16.1745 189.467 19.2525C190.197 21.0525 190.736 21.3099 191.177 21.4629C191.438 21.5349 191.704 21.5709 191.973 21.5709C192.08 21.5709 192.222 21.6195 192.222 21.7509C192.222 21.8787 192 21.9075 191.768 21.9075C191.538 21.9075 189.988 21.9075 188.605 21.8625C188.212 21.8625 187.896 21.8625 187.896 21.7275C187.896 21.5925 187.939 21.6195 188.041 21.5691C188.092 21.5484 188.138 21.5163 188.176 21.4752C188.213 21.4341 188.241 21.3849 188.257 21.3315C188.273 21.2773 188.278 21.2203 188.271 21.1641C188.262 21.1083 188.242 21.055 188.212 21.0075L186.421 16.3653C186.407 16.3293 186.381 16.299 186.348 16.2789C186.315 16.26 186.275 16.2536 186.238 16.2609H181.623C181.575 16.2584 181.528 16.2723 181.489 16.3005C181.45 16.3293 181.421 16.3705 181.407 16.4175L180.277 19.6503C180.105 20.0823 180.004 20.5395 179.982 21.0075C179.982 21.4179 180.316 21.5691 180.659 21.5691H180.843C181.009 21.5691 181.052 21.6411 181.052 21.7491C181.052 21.8571 180.928 21.9075 180.757 21.9075C180.277 21.9075 179.186 21.8391 178.959 21.8391C178.734 21.8391 177.745 21.9075 176.931 21.9075C176.678 21.9075 176.544 21.8625 176.544 21.7491C176.547 21.7017 176.566 21.6569 176.599 21.6231C176.632 21.5896 176.676 21.5702 176.723 21.5691C176.919 21.5655 177.117 21.5511 177.313 21.5241C178.227 21.4125 178.615 20.6871 179.002 19.6683L183.71 7.01789ZM185.938 15.4545C186.039 15.4545 186.039 15.4041 186.013 15.3087L184.028 9.77369C183.92 9.45869 183.801 9.45869 183.688 9.77369L181.837 15.2925C181.837 15.3879 181.837 15.4365 181.892 15.4365L185.938 15.4545ZM194.319 21.6087C194.044 21.4737 194.023 21.3999 194.023 20.8545C194.023 19.8465 194.114 19.0365 194.141 18.7125C194.141 18.4965 194.178 18.3741 194.298 18.3741C194.415 18.3741 194.474 18.4461 194.474 18.6171C194.469 18.8619 194.492 19.1085 194.544 19.3479C194.867 20.8329 196.368 21.3495 197.713 21.3495C199.687 21.3495 200.71 20.1795 200.71 18.6621C200.71 17.1429 199.962 16.5237 198.188 15.1395L197.277 14.4195C195.126 12.7329 194.415 11.4945 194.415 10.0941C194.415 7.70909 196.213 6.27989 198.848 6.27989C199.543 6.28626 200.236 6.36772 200.914 6.52289C201.147 6.58949 201.388 6.62009 201.629 6.61829C201.787 6.61829 201.829 6.64529 201.829 6.76949C201.76 7.48049 201.728 8.19329 201.733 8.90789C201.733 9.22289 201.704 9.35789 201.581 9.35789C201.458 9.35789 201.421 9.25529 201.404 9.09869C201.347 8.75351 201.245 8.4172 201.103 8.09789C200.964 7.86029 200.307 7.08989 198.509 7.08989C197.042 7.08989 195.847 7.86029 195.847 9.27869C195.847 10.5783 196.46 11.3091 198.439 12.7167L199.011 13.1145C201.442 14.8533 202.281 16.2645 202.281 17.9925C202.29 18.6891 202.124 19.3785 201.795 19.9851C201.472 20.5881 200.995 21.0937 200.414 21.4503C199.58 22.0137 198.321 22.1541 197.234 22.1541C196.235 22.1831 195.241 21.9972 194.319 21.6087ZM207.774 12.4683C207.774 9.31829 207.774 8.74949 207.726 8.10869C207.678 7.46789 207.574 7.07909 206.908 6.98369C206.681 6.95683 206.453 6.94181 206.224 6.93869C206.185 6.92967 206.149 6.90971 206.121 6.88109C206.092 6.85155 206.072 6.81491 206.062 6.77489C206.062 6.65249 206.16 6.60029 206.38 6.60029C207.296 6.60029 208.597 6.65249 208.704 6.65249H213.487C213.938 6.65249 214.235 6.54989 214.39 6.52649C214.547 6.50489 214.585 6.43649 214.665 6.43649C214.745 6.43649 214.756 6.52649 214.756 6.62369C214.688 6.941 214.638 7.26191 214.606 7.58489C214.606 7.77029 214.531 8.68289 214.488 8.91329C214.488 9.00329 214.39 9.12749 214.31 9.12749C214.229 9.12749 214.144 9.02489 214.144 8.86829C214.145 8.62551 214.107 8.38415 214.031 8.15369C213.89 7.81529 213.687 7.66949 212.594 7.53449C212.26 7.48409 209.941 7.46249 209.706 7.46249C209.618 7.46249 209.597 7.53449 209.597 7.66949V13.1703C209.597 13.3233 209.597 13.3863 209.706 13.3863C209.952 13.3863 212.594 13.3863 213.056 13.3341C213.519 13.2837 213.831 13.2729 214.031 13.0641C214.229 12.8553 214.256 12.7887 214.331 12.7887C214.406 12.7887 214.44 12.8391 214.44 12.9633C214.44 13.0875 214.331 13.4133 214.283 14.0883C214.235 14.4879 214.192 15.2475 214.192 15.3933C214.192 15.5391 214.144 15.7875 214.008 15.7875C213.874 15.7875 213.869 15.7083 213.869 15.5841C213.879 15.3611 213.85 15.1381 213.783 14.9253C213.708 14.6337 213.535 14.3979 212.76 14.3025C212.223 14.2233 210.072 14.1999 209.727 14.1999C209.618 14.1999 209.597 14.2737 209.597 14.3529V16.0395C209.597 16.7199 209.57 19.0725 209.597 19.4883C209.64 20.8437 210 21.1029 211.985 21.1029C212.658 21.1389 213.331 21.0669 213.981 20.8887C214.251 20.7724 214.481 20.5783 214.642 20.3307C214.804 20.0798 214.892 19.7877 214.897 19.4883C214.94 19.2525 214.988 19.1733 215.106 19.1733C215.225 19.1733 215.236 19.3353 215.236 19.4883C215.183 20.1417 215.09 20.7915 214.961 21.4341C214.833 21.9561 214.627 21.9561 213.858 21.9561C212.346 21.9561 211.168 21.9075 210.366 21.8841C209.565 21.8625 209 21.8391 208.704 21.8391H207.844C207.413 21.8391 206.999 21.8841 206.676 21.8841C206.476 21.8841 206.353 21.8391 206.353 21.7275C206.353 21.7023 206.357 21.6789 206.366 21.6555C206.373 21.6339 206.385 21.6142 206.401 21.5979C206.417 21.5812 206.437 21.568 206.458 21.5594C206.48 21.5507 206.503 21.5466 206.526 21.5475C206.703 21.5475 206.951 21.4791 207.133 21.4629C207.526 21.3909 207.574 20.9787 207.671 20.3883C207.788 18.9339 207.828 17.4759 207.79 16.0179L207.774 12.4683ZM220.992 12.4683C220.992 9.31829 220.992 8.74949 220.949 8.10869C220.906 7.46789 220.793 7.07909 220.131 6.98369C219.904 6.95677 219.676 6.94175 219.447 6.93869C219.408 6.93035 219.373 6.91047 219.345 6.88161C219.318 6.85275 219.299 6.81622 219.292 6.77669C219.292 6.65069 219.372 6.60029 219.61 6.60029C220.518 6.60029 221.761 6.65249 221.863 6.65249C221.966 6.65249 223.252 6.60029 223.837 6.60029C224.064 6.60029 224.16 6.65249 224.16 6.77489C224.155 6.81557 224.137 6.85344 224.108 6.88289C224.081 6.91262 224.045 6.93226 224.005 6.93869C223.837 6.93569 223.668 6.95078 223.503 6.98369C222.966 7.09529 222.837 7.38869 222.789 8.10869C222.739 8.82869 222.745 9.31829 222.745 12.4683V13.6779H222.837C223.161 13.2999 226.733 9.60449 227.474 8.79449C228.05 8.19329 228.577 7.66949 228.577 7.34369C228.577 7.01789 228.48 6.96569 228.325 6.94409C228.281 6.93433 228.241 6.91181 228.209 6.87929C228.178 6.84563 228.156 6.80391 228.147 6.75869C228.147 6.65789 228.227 6.60749 228.373 6.60749C228.777 6.60749 229.4 6.65789 229.868 6.65789C229.992 6.65789 231.315 6.60749 231.815 6.60749C232.01 6.60749 232.106 6.65789 232.106 6.75869C232.106 6.83789 232.063 6.91529 231.897 6.91529C231.513 6.94409 231.139 7.04129 230.789 7.20329C229.966 7.59029 229.578 8.03489 228.695 8.88989C228.195 9.36869 224.78 12.7887 224.337 13.2945C224.876 13.8579 229.028 18.2337 229.846 19.0203C231.537 20.6025 231.767 20.8599 232.715 21.2703C233.109 21.4269 233.525 21.5223 233.947 21.5529C234.086 21.5529 234.198 21.6249 234.198 21.7329C234.198 21.8409 234.107 21.8895 233.763 21.8895H232.742C232.17 21.8895 231.815 21.8895 231.347 21.8445C230.305 21.7491 229.776 21.2829 228.921 20.6133C228.066 19.9437 223.8 15.2403 222.837 14.0613H222.723V16.0413C222.723 17.9745 222.723 19.5783 222.816 20.4099C222.891 21.0021 222.977 21.3891 223.591 21.4845C223.846 21.5277 224.105 21.5565 224.366 21.5691C224.4 21.5693 224.433 21.5802 224.461 21.6002C224.488 21.6201 224.509 21.6483 224.521 21.6807C224.528 21.7028 224.532 21.7259 224.532 21.7491C224.532 21.8391 224.435 21.9075 224.214 21.9075C223.23 21.9075 222.02 21.8391 221.868 21.8391C221.718 21.8391 220.497 21.9075 219.883 21.9075C219.674 21.9075 219.571 21.8625 219.571 21.7491C219.569 21.7267 219.572 21.7042 219.578 21.6825C219.584 21.6604 219.596 21.6401 219.612 21.6231C219.626 21.606 219.644 21.5923 219.664 21.583C219.684 21.5737 219.706 21.5689 219.728 21.5691C219.933 21.5601 220.138 21.5313 220.34 21.4845C220.722 21.3891 220.772 21.0021 220.879 20.4099C220.981 19.5783 220.981 17.9745 220.981 16.0395L220.992 12.4683ZM239.122 16.0395C239.122 17.9745 239.122 19.5783 239.197 20.4099C239.272 21.0021 239.341 21.3891 239.94 21.4845C240.225 21.5241 240.666 21.5691 240.843 21.5691C240.865 21.569 240.887 21.5738 240.907 21.5832C240.927 21.5925 240.945 21.6061 240.959 21.6231C240.975 21.6411 240.986 21.6591 240.993 21.6825C240.998 21.7041 241.002 21.7257 240.998 21.7491C240.998 21.8391 240.912 21.9075 240.693 21.9075C239.568 21.9075 238.278 21.8391 238.174 21.8391C238.072 21.8391 236.819 21.9075 236.2 21.9075C236.001 21.9075 235.884 21.8625 235.884 21.7491C235.881 21.703 235.896 21.6577 235.926 21.6231C235.941 21.6063 235.959 21.5928 235.98 21.5834C236 21.5741 236.022 21.5693 236.044 21.5691C236.251 21.5606 236.457 21.5323 236.658 21.4845C237.051 21.3891 237.11 21.0021 237.196 20.4099C237.292 19.5783 237.324 17.9745 237.324 16.0395V12.4683C237.324 9.31829 237.324 8.74949 237.271 8.10869C237.217 7.46789 237.073 7.10069 236.63 7.01789C236.43 6.97475 236.227 6.95064 236.023 6.94589C235.981 6.94152 235.942 6.92241 235.912 6.89189C235.882 6.86208 235.862 6.82274 235.857 6.78029C235.857 6.65789 235.953 6.60749 236.178 6.60749C236.84 6.60749 238.094 6.65789 238.195 6.65789C238.299 6.65789 239.59 6.60749 240.209 6.60749C240.434 6.60749 240.52 6.65789 240.52 6.78029C240.513 6.82076 240.494 6.85827 240.466 6.88829C240.438 6.91635 240.403 6.93573 240.364 6.94409C240.198 6.94068 240.033 6.95577 239.87 6.98909C239.331 7.10249 239.202 7.39409 239.165 8.11409C239.127 8.83409 239.165 9.32369 239.165 12.4737L239.122 16.0395ZM66.3874 48.0903C64.188 46.0329 63.6382 43.3149 63.6382 41.0595C63.6466 38.6451 64.5509 36.3213 66.1732 34.5453C67.5388 33.1179 69.6096 31.9983 73.1068 31.9983C74.2136 31.9965 75.3204 32.0919 76.4094 32.2863C77.177 32.4591 77.9536 32.5797 78.7355 32.6463C78.9819 32.6463 79.0247 32.7579 79.0247 32.9037C79.0247 33.0495 78.9604 33.3753 78.9069 34.2357C78.8533 35.0979 78.8587 36.3291 78.8355 36.6891C78.8158 37.0491 78.7676 37.1841 78.6391 37.1841C78.5088 37.1841 78.4552 37.0275 78.4552 36.6891C78.4644 36.2371 78.3837 35.7879 78.2178 35.3679C78.0531 34.9522 77.8059 34.5749 77.4912 34.2591C76.7004 33.5499 74.9473 32.9037 72.9515 32.9037C69.9274 32.9037 68.5135 33.8379 67.7173 34.6479C66.05 36.3075 65.6733 38.4279 65.6733 40.8345C65.6576 41.9694 65.8582 43.0968 66.2642 44.1555C66.6694 45.2103 67.271 46.1715 68.0351 46.9815C68.7974 47.7915 69.7078 48.4341 70.7093 48.8733C71.7084 49.3127 72.7863 49.5406 73.8762 49.5429C75.5882 49.5429 76.9325 49.3341 77.8358 48.3495C78.2678 47.7645 78.5588 47.0805 78.6855 46.3515C78.7355 46.0815 78.7676 45.9987 78.9069 45.9987C79.0461 45.9987 79.0675 46.1607 79.0675 46.3533C78.9604 47.3775 78.7926 48.3945 78.5623 49.3953C78.4338 49.8507 78.3838 49.8903 77.9821 50.0883C76.6518 50.4945 75.2658 50.6841 73.8762 50.6499C70.4772 50.6679 68.1851 49.7841 66.3874 48.0903ZM88.2291 35.4525C88.488 34.7703 88.5683 34.6641 88.72 34.6641C88.87 34.6641 88.9825 34.9449 89.1931 35.3949C89.5484 36.2499 92.7546 44.6037 93.9863 47.6745C94.7236 49.4745 95.2556 49.7337 95.6912 49.8849C95.9518 49.9587 96.2196 49.9947 96.4874 49.9929C96.5945 49.9929 96.7409 50.0469 96.7409 50.1729C96.7409 50.2953 96.5142 50.3349 96.2892 50.3349C96.0625 50.3349 94.5076 50.3349 93.1259 50.2845C92.7385 50.2845 92.4154 50.2845 92.4154 50.1495C92.4154 50.0145 92.4582 50.0487 92.5546 49.9929C92.6081 49.9748 92.6566 49.9442 92.696 49.9035C92.7354 49.8628 92.7647 49.8132 92.7813 49.7589C92.7992 49.7043 92.8045 49.6463 92.7971 49.5893C92.7897 49.5323 92.7697 49.4776 92.7385 49.4295L90.9194 44.8053C90.9055 44.7699 90.8804 44.7402 90.848 44.7207C90.8158 44.7012 90.778 44.6936 90.7409 44.6991H86.1208C86.0736 44.6989 86.0277 44.7148 85.9905 44.7441C85.9523 44.7741 85.9248 44.8158 85.9119 44.8629L84.7819 48.0903C84.6016 48.5223 84.4945 48.9831 84.4642 49.4529C84.4642 49.8633 84.8033 50.0145 85.1425 50.0145H85.33C85.4906 50.0145 85.5353 50.0937 85.5353 50.1945C85.5353 50.2953 85.4157 50.3565 85.2318 50.3565C84.7605 50.3565 83.668 50.2845 83.4412 50.2845C83.2163 50.2845 82.2273 50.3565 81.4133 50.3565C81.1616 50.3565 81.0259 50.3079 81.0259 50.1945C81.0285 50.1462 81.0489 50.1006 81.083 50.0667C81.1163 50.0334 81.1611 50.0147 81.208 50.0145C81.4044 50.0145 81.6007 49.9983 81.7971 49.9695C82.7093 49.8579 83.0913 49.1379 83.4859 48.1137L88.2291 35.4525ZM90.4624 43.8891C90.5534 43.8891 90.5534 43.8387 90.5266 43.7433L88.5415 38.2083C88.4344 37.8933 88.3219 37.8933 88.213 38.2083L86.3422 43.7433C86.3422 43.8387 86.3422 43.8891 86.4064 43.8891H90.4624ZM100.49 40.8975C100.49 37.7475 100.49 37.1787 100.454 36.5379C100.415 35.8953 100.292 35.5083 99.64 35.4129C99.4686 35.4129 99.1348 35.3679 98.9402 35.3679C98.902 35.3581 98.8673 35.3375 98.8403 35.3085C98.8128 35.2794 98.7936 35.2433 98.7849 35.2041C98.7849 35.0799 98.8813 35.0295 99.1062 35.0295C100.017 35.0295 101.259 35.0799 101.432 35.0799C101.857 35.0799 103.359 35.0295 104.271 35.0295C106.843 35.0295 107.752 35.8629 108.091 36.1545C108.407 36.4677 108.659 36.8439 108.832 37.2597C109.003 37.6773 109.094 38.1237 109.098 38.5791C109.098 41.4771 107 43.3995 103.933 43.3995C103.742 43.4104 103.55 43.4104 103.359 43.3995C103.276 43.3995 103.153 43.3095 103.153 43.2141C103.153 43.1187 103.278 43.0053 103.691 43.0053C105.844 43.0053 107.409 41.5707 107.409 39.7437C107.431 39.1783 107.341 38.6142 107.145 38.0841C106.95 37.5588 106.652 37.0788 106.268 36.6729C105.916 36.32 105.492 36.0496 105.024 35.8809C104.561 35.7137 104.067 35.6534 103.578 35.7045C103.2 35.7158 102.824 35.761 102.453 35.8395C102.341 35.8395 102.304 36.0141 102.304 36.2283V44.4687C102.304 46.3983 102.304 48.0003 102.389 48.8391C102.453 49.4025 102.573 49.8111 103.18 49.9083C103.455 49.9479 103.891 49.9929 104.073 49.9929C104.117 49.9954 104.159 50.0155 104.189 50.0487C104.219 50.0828 104.236 50.1271 104.235 50.1729C104.235 50.2629 104.142 50.3349 103.912 50.3349C102.835 50.3349 101.502 50.2629 101.411 50.2629C101.318 50.2629 100.043 50.3349 99.4365 50.3349C99.2223 50.3349 99.1187 50.2845 99.1187 50.1729C99.1154 50.1279 99.1295 50.0834 99.158 50.0487C99.1717 50.0321 99.1886 50.0185 99.2076 50.0086C99.2266 49.9988 99.2474 49.9928 99.2687 49.9911C99.4758 49.9857 99.6811 49.9551 99.8828 49.9083C100.265 49.8129 100.318 49.4295 100.42 48.8391C100.522 48.0003 100.522 46.3983 100.522 44.4687L100.49 40.8975ZM116.103 44.4687C116.103 46.3983 116.103 48.0003 116.192 48.8391C116.264 49.4025 116.339 49.8111 116.921 49.9083C117.215 49.9479 117.658 49.9929 117.829 49.9929C117.851 49.9936 117.873 49.9988 117.893 50.008C117.913 50.0173 117.931 50.0305 117.945 50.0469C117.961 50.0639 117.972 50.0838 117.98 50.1054C117.988 50.127 117.991 50.15 117.99 50.1729C117.99 50.2629 117.904 50.3349 117.674 50.3349C116.56 50.3349 115.269 50.2629 115.171 50.2629C115.075 50.2629 113.805 50.3349 113.197 50.3349C112.982 50.3349 112.875 50.2845 112.875 50.1729C112.874 50.1275 112.889 50.0832 112.918 50.0487C112.947 50.0158 112.987 49.9958 113.031 49.9929C113.238 49.9857 113.441 49.9569 113.643 49.9083C114.036 49.8129 114.102 49.4295 114.182 48.8391C114.279 48.0003 114.3 46.3983 114.3 44.4687V40.8957C114.3 37.7457 114.3 37.1769 114.252 36.5361C114.204 35.8935 114.048 35.5281 113.606 35.4507C113.405 35.4016 113.2 35.3751 112.993 35.3715C112.953 35.3661 112.916 35.347 112.888 35.3175C112.86 35.2879 112.842 35.2501 112.836 35.2095C112.836 35.0835 112.934 35.0331 113.165 35.0331C113.816 35.0331 115.075 35.0835 115.182 35.0835C115.289 35.0835 116.571 35.0331 117.183 35.0331C117.42 35.0331 117.501 35.0835 117.501 35.2077C117.495 35.2484 117.476 35.2862 117.447 35.3157C117.42 35.3441 117.384 35.363 117.345 35.3697C117.178 35.3665 117.01 35.3822 116.846 35.4165C116.307 35.5281 116.183 35.8215 116.135 36.5415C116.087 37.2615 116.135 37.7511 116.135 40.9011L116.103 44.4651V44.4687ZM127.96 44.4687C127.96 46.3983 127.96 48.0003 128.049 48.8391C128.116 49.4025 128.207 49.8111 128.826 49.9083C129.099 49.9479 129.553 49.9929 129.729 49.9929C129.752 49.9908 129.776 49.9941 129.797 50.0025C129.819 50.011 129.839 50.0243 129.854 50.0415C129.87 50.0591 129.882 50.08 129.889 50.1027C129.896 50.1254 129.898 50.1493 129.895 50.1729C129.895 50.2629 129.806 50.3349 129.574 50.3349C128.498 50.3349 127.207 50.2629 127.093 50.2629C126.98 50.2629 125.614 50.3349 125.022 50.3349C124.797 50.3349 124.715 50.2845 124.715 50.1729C124.715 50.0595 124.747 50.0253 124.866 50.0253C125.068 50.0163 125.268 49.9821 125.463 49.9245C125.861 49.8345 126.002 49.4295 126.045 48.8391C126.141 48.0003 126.141 46.3983 126.141 44.4687V35.9691L123.247 36.0195C121.998 36.0195 121.525 36.1815 121.225 36.6495C121.094 36.8541 120.987 37.0734 120.907 37.3029C120.859 37.4649 120.794 37.4883 120.702 37.4883C120.682 37.4866 120.663 37.4809 120.645 37.4717C120.628 37.4624 120.612 37.4497 120.6 37.4343C120.575 37.4041 120.561 37.3657 120.562 37.3263C120.562 37.1103 120.955 35.2995 120.998 35.1375C121.041 34.9737 121.137 34.7487 121.203 34.7487C121.492 34.8513 121.789 34.9305 122.091 34.9845C122.655 35.0565 123.424 35.0853 123.661 35.0853H131.193C131.672 35.09 132.15 35.0563 132.623 34.9845C132.919 34.9449 133.103 34.8945 133.194 34.8945C133.285 34.8945 133.285 35.0133 133.285 35.1375C133.285 35.7549 133.221 37.2003 133.221 37.4415C133.221 37.6845 133.119 37.7025 133.027 37.7025C132.937 37.7025 132.898 37.6341 132.871 37.3533V37.1283C132.796 36.5163 132.366 36.0591 130.456 36.0033L127.955 35.9529L127.96 44.4669V44.4687ZM140.951 35.4507C141.199 34.7703 141.296 34.6641 141.426 34.6641C141.554 34.6641 141.704 34.9449 141.904 35.3949C142.27 36.2499 145.482 44.6037 146.706 47.6745C147.435 49.4745 147.983 49.7337 148.413 49.8849C148.67 49.9587 148.938 49.9947 149.204 49.9929C149.329 49.9929 149.457 50.0469 149.457 50.1729C149.457 50.2953 149.225 50.3349 149.006 50.3349C148.784 50.3349 147.224 50.3349 145.837 50.2845C145.455 50.2845 145.141 50.2845 145.141 50.1495C145.141 50.0145 145.185 50.0487 145.276 49.9929C145.329 49.9732 145.376 49.9414 145.414 49.9002C145.452 49.859 145.48 49.8093 145.496 49.7553C145.513 49.7015 145.518 49.6447 145.511 49.5888C145.504 49.5328 145.485 49.4791 145.455 49.4313L143.663 44.7837C143.648 44.7465 143.621 44.7154 143.586 44.6955C143.552 44.6769 143.513 44.6705 143.475 44.6775H138.859C138.812 44.6776 138.766 44.6934 138.728 44.7225C138.691 44.7522 138.663 44.7932 138.65 44.8395L137.515 48.0687C137.347 48.5025 137.247 48.9633 137.218 49.4295C137.218 49.8399 137.563 49.9929 137.902 49.9929H138.084C138.241 49.9929 138.284 50.0703 138.284 50.1729C138.284 50.2737 138.177 50.3349 137.993 50.3349C137.515 50.3349 136.427 50.2629 136.19 50.2629C135.954 50.2629 134.99 50.3349 134.167 50.3349C133.921 50.3349 133.792 50.2845 133.792 50.1729C133.792 50.1243 133.81 50.0775 133.846 50.0451C133.862 50.0284 133.881 50.015 133.902 50.0057C133.923 49.9964 133.946 49.9915 133.969 49.9911C134.165 49.9911 134.364 49.9749 134.56 49.9479C135.47 49.8345 135.858 49.1145 136.238 48.0903L140.951 35.4507ZM143.182 43.8891C143.272 43.8891 143.272 43.8387 143.249 43.7433L141.269 38.2083C141.151 37.8933 141.042 37.8933 140.924 38.2083L139.057 43.7433C139.057 43.8387 139.057 43.8891 139.128 43.8891H143.182ZM155.079 44.5011C155.079 47.4783 155.127 48.6933 155.493 49.0533C155.859 49.4133 156.57 49.5303 158.151 49.5303C159.194 49.5303 160.088 49.4979 160.567 48.9075C160.809 48.5781 160.972 48.1911 161.04 47.7825C161.04 47.6403 161.136 47.5179 161.238 47.5179C161.341 47.5179 161.384 47.6187 161.384 47.8329C161.332 48.514 161.233 49.1907 161.088 49.8579C160.954 50.3295 160.884 50.4195 159.808 50.4195C158.382 50.4195 157.268 50.4195 156.332 50.3403C155.397 50.2629 154.718 50.2953 154.149 50.2953H153.329C152.949 50.2953 152.485 50.3457 152.164 50.3457C151.964 50.3457 151.851 50.2953 151.851 50.1837C151.849 50.1376 151.864 50.0923 151.894 50.0577C151.909 50.0408 151.927 50.0272 151.947 50.0179C151.968 50.0086 151.99 50.0037 152.012 50.0037C152.219 49.9947 152.423 49.9659 152.626 49.9191C153.008 49.8237 153.055 49.4403 153.163 48.8499C153.274 47.3973 153.312 45.9375 153.276 44.4795V40.8975C153.276 37.7475 153.276 37.1787 153.233 36.5379C153.19 35.8953 153.072 35.5083 152.405 35.4129C152.182 35.386 151.958 35.371 151.734 35.3679C151.693 35.3611 151.655 35.3416 151.626 35.3121C151.598 35.2821 151.58 35.2446 151.573 35.2041C151.573 35.0799 151.662 35.0295 151.883 35.0295C152.803 35.0295 154.035 35.0799 154.165 35.0799C154.293 35.0799 155.779 35.0295 156.37 35.0295C156.57 35.0295 156.687 35.0799 156.687 35.2041C156.687 35.3283 156.596 35.3445 156.537 35.3445C156.391 35.3445 156.095 35.3445 155.87 35.3895C155.277 35.5029 155.165 35.8179 155.116 36.5145C155.068 37.2129 155.116 37.7241 155.116 40.8741L155.079 44.5011Z" fill="black"></path><path d="M22.363 0.233643L0 13.7336L22.363 27.239V0.233643Z" fill="#E50012"></path><path d="M22.363 27.239L0 40.7444L22.363 54.2336V27.239Z" fill="#EE835C"></path><path d="M22.363 27.239L0 13.7336V40.7444L22.363 27.239Z" fill="#F4AF8F"></path><path d="M22.3647 27.239L44.7331 13.7336L22.3665 0.233643V27.239H22.3647Z" fill="#EE835C"></path><path d="M22.3647 54.2336L44.7331 40.7444L22.3647 27.239V54.2336Z" fill="#E50012"></path></g><defs><clipPath id="clip0_115_10962"><rect width="241" height="54" fill="white" transform="translate(0 0.233643)"></rect></clipPath></defs></svg> 