<?xml version="1.0" encoding="UTF-8"?> <svg xmlns="http://www.w3.org/2000/svg" width="103" height="89" viewBox="0 0 103 89" fill="none"><g clip-path="url(#clip0_242_11)"><path d="M52.0374 21.4021C51.4764 21.4156 50.916 21.4522 50.3557 21.488C49.6186 21.5347 48.8815 21.5828 48.1464 21.6532C46.5932 21.8033 45.0519 22.0579 43.5333 22.4154C42.0086 22.672 40.526 23.1336 39.1262 23.7876C36.702 25.1752 34.1622 26.3308 31.8842 27.9892C29.1571 29.8485 26.7555 32.1413 24.7755 34.776C22.7675 37.5611 21.1562 40.6093 19.9876 43.834C19.4041 45.454 18.9445 47.1156 18.6126 48.8046C18.3019 50.3947 17.2839 53.0597 18.6357 54.394C19.8815 55.6232 22.9959 54.9355 24.5688 54.9355C26.1695 54.9355 27.7702 54.9869 29.3716 54.9951C30.8798 55.0039 32.6907 55.2042 34.1316 54.6911C35.6677 54.1442 35.544 52.5541 35.922 51.2618C36.3266 49.8114 37.0641 48.4743 38.0763 47.356C38.6369 46.7841 39.3109 46.3347 40.0554 46.0363C40.8 45.7378 41.5988 45.5968 42.4011 45.6224C45.0102 45.6224 47.0142 47.3323 48.1362 49.5418C48.6053 50.6009 48.9896 51.6953 49.2854 52.8147C49.4302 53.3844 49.6865 53.9202 50.0395 54.3912C50.5889 55.0303 51.3002 54.991 52.0693 55.0289C54.3432 55.1413 54.6696 53.0022 55.1939 51.362C55.5283 50.2733 56.0421 49.2476 56.7144 48.3267C57.2728 47.5216 58.0124 46.8576 58.8742 46.3875C59.736 45.9174 60.6963 45.6542 61.6784 45.619C62.588 45.5269 63.5039 45.7195 64.2984 46.17C65.4474 46.9533 66.4183 47.968 67.1483 49.1485C67.8448 50.51 68.4378 51.9215 68.9224 53.3711C69.0654 53.8776 69.3901 54.3143 69.835 54.5984C70.0558 54.6887 70.2908 54.7395 70.5293 54.7487C70.9652 54.7879 71.4031 54.8096 71.841 54.813C72.0756 54.8308 72.3113 54.7958 72.5305 54.7107C72.741 54.5677 72.9116 54.3739 73.0265 54.1475C73.1414 53.921 73.1967 53.6693 73.1874 53.4158C73.3296 51.2764 72.9182 49.1364 71.9925 47.2003C71.0669 45.2643 69.658 43.5969 67.9004 42.3576C65.5961 40.721 62.7452 40.035 59.9444 40.4432C56.9831 41.0565 54.3502 42.7285 52.5433 45.1431C52.4839 45.2206 52.4073 45.2834 52.3196 45.3266C52.2318 45.3698 52.1353 45.3923 52.0374 45.3923C51.9395 45.3923 51.8429 45.3698 51.7551 45.3266C51.6674 45.2834 51.5908 45.2206 51.5314 45.1431C50.4872 43.6982 49.1171 42.5173 47.5311 41.6953C45.9452 40.8733 44.1876 40.4331 42.3997 40.4101C39.1044 40.4101 35.4154 42.0306 33.4774 44.6964C32.3755 46.2141 31.5177 47.8933 30.9349 49.6738C30.6853 50.4516 28.8895 50.3385 28.2754 50.3162C27.0167 50.2708 25.7635 50.1239 24.5035 50.1199C24.4096 50.1204 24.3168 50.1002 24.2317 50.0608C24.1465 50.0215 24.0712 49.9638 24.011 49.8921C23.9509 49.8204 23.9074 49.7363 23.8836 49.6459C23.8599 49.5555 23.8566 49.461 23.8738 49.3692C24.0692 48.1599 24.3882 46.9736 24.8258 45.8288C25.6734 43.7272 26.652 41.6802 27.7559 39.7C29.4701 36.9504 31.7114 34.5638 34.3519 32.6762C39.1921 29.0302 45.0463 26.963 51.1125 26.7579C52.2592 26.6795 53.4109 26.7144 54.5506 26.8621C55.2673 26.9704 55.9698 27.1525 56.6817 27.2852C57.4569 27.4294 58.2424 27.5154 59.0189 27.6535C60.6346 27.9424 62.2012 28.4572 63.6721 29.1826C66.6398 30.5204 69.3925 32.2875 71.841 34.4267C73.266 35.7328 74.527 37.2056 75.5966 38.8132C77.0236 40.9163 78.2311 43.1588 79.2006 45.506C80.1383 47.8752 80.6592 50.3676 81.5364 52.7592C81.6723 53.25 81.9401 53.6947 82.311 54.0453C82.6245 54.2673 82.9855 54.4135 83.3656 54.4725C83.8118 54.5983 84.2856 54.5877 84.7256 54.442C85.6341 54.065 85.5355 52.5974 85.5137 51.802C85.5445 49.9878 85.3492 48.1767 84.9324 46.4103C84.5578 45.0664 84.1106 43.7436 83.5928 42.4476C81.6157 37.56 78.4912 33.2149 74.4808 29.7763C72.6116 28.301 70.6313 26.971 68.5573 25.798C65.1287 23.708 61.2995 22.3539 57.3148 21.8224L55.247 21.5909C54.4588 21.5029 53.67 21.4143 52.8765 21.3933C52.5956 21.3858 52.3155 21.3872 52.0346 21.3933" fill="#201D1D"></path><path d="M52.2883 16.4267C52.7085 16.4883 53.137 16.4001 53.4981 16.1776C53.7825 15.9593 54.0038 15.6699 54.1393 15.3388C54.939 13.6289 54.803 11.6733 54.7268 9.84359C54.6445 7.88863 54.3188 5.90186 54.1352 3.94014C54.1158 3.26295 53.9636 2.59608 53.6871 1.97707C53.5421 1.66827 53.3122 1.40673 53.0239 1.22281C52.7356 1.03888 52.4009 0.940125 52.0585 0.937988C51.6894 1.01813 51.3433 1.18064 51.0465 1.41329C50.7497 1.64593 50.5098 1.94263 50.3449 2.281C49.1467 4.12968 49.3691 6.23356 49.4656 8.34353C49.54 10.7703 49.9137 13.1788 50.5781 15.5149C50.6183 15.7027 50.7063 15.8771 50.8338 16.0212C50.9932 16.1484 51.1834 16.2315 51.3853 16.2622C51.6818 16.3393 51.9836 16.3943 52.2883 16.4267Z" fill="#201D1D"></path><path d="M28.9656 20.8139C29.1523 21.1286 29.4024 21.4015 29.7002 21.6153C29.998 21.8291 30.3371 21.9791 30.696 22.056C31.055 22.1329 31.4261 22.135 31.7859 22.062C32.1457 21.9891 32.4864 21.8428 32.7865 21.6323C33.3233 21.2346 33.6916 20.6518 33.8194 19.9979C33.9472 19.3441 33.8252 18.6664 33.4774 18.0974C31.8638 14.9158 30.0822 11.5312 27.6498 8.92031C27.4235 8.65511 27.1634 8.42049 26.876 8.22241C26.6314 8.07106 26.3577 7.97244 26.0725 7.93292C25.7873 7.89339 25.497 7.91383 25.2202 7.99293C24.9452 8.07495 24.6907 8.21383 24.4734 8.40046C24.256 8.58709 24.0807 8.81729 23.9588 9.07601C23.5168 10.0339 23.901 11.1474 24.2865 12.1289C24.5658 12.8884 24.9055 13.6246 25.3025 14.3303L26.3578 16.1377C27.2595 17.6817 28.068 19.2854 28.9649 20.8145" fill="#201D1D"></path><path d="M17.1017 32.3914C16.2571 31.79 15.3505 31.2798 14.3973 30.8697C13.2855 30.2442 12.2077 29.5612 11.1333 28.8809C9.6339 27.9332 6.47735 26.4141 4.98135 28.0625C4.78251 28.3408 4.66418 28.6681 4.63924 29.0087C4.6143 29.3494 4.68371 29.6903 4.83991 29.9944C5.60899 31.8898 7.47695 32.7583 9.08583 33.796C10.3189 34.5485 11.5972 35.2249 12.9136 35.8213C13.8944 36.3892 14.9617 36.7939 16.0735 37.0195C16.5877 37.0444 17.0946 36.8916 17.5085 36.5868C17.9223 36.2821 18.2175 35.8442 18.344 35.3475C18.4062 34.8091 18.3328 34.2638 18.1304 33.7607C17.928 33.2576 17.6029 32.8126 17.1846 32.4658C17.1588 32.4408 17.1329 32.4157 17.1057 32.3914" fill="#201D1D"></path><path d="M99.0858 27.9426C98.5201 26.7559 96.6113 26.6219 95.5587 27.2217C93.5085 28.3887 91.4454 29.4975 89.3625 30.59C87.7183 31.4531 84.6338 33.2057 85.5926 35.4903C85.7556 35.8754 86.0078 36.2168 86.3285 36.4865C86.6492 36.7563 87.0294 36.9467 87.4381 37.0425C88.4887 37.2875 89.0266 36.8109 89.8793 36.2857C92.0127 34.9715 94.1463 33.6583 96.2802 32.346C96.7847 32.0538 97.2652 31.7222 97.717 31.3543C98.077 31.0447 98.3952 30.69 98.6636 30.2989C99.0731 29.7689 99.2749 29.1087 99.2314 28.4415C99.2095 28.2689 99.1607 28.1008 99.0865 27.9433" fill="#201D1D"></path><path d="M71.4717 21.3886C71.8141 21.6951 72.2362 21.8995 72.6898 21.9784C73.1434 22.0573 73.6102 22.0075 74.0367 21.8347C75.0403 21.3608 75.4687 20.2053 75.9917 19.3124L77.7195 16.3624C79.138 14.264 80.4668 12.0829 79.8779 9.47946C79.8209 9.15493 79.692 8.84713 79.5005 8.57848C79.1979 8.27339 78.7998 8.08025 78.3719 8.03101C77.9441 7.98178 77.5122 8.07939 77.1477 8.30771C76.434 8.7852 75.8441 9.42431 75.4266 10.1726L71.7675 15.6747C70.8101 17.1152 69.5616 19.657 71.146 21.1144C71.2493 21.2099 71.3581 21.3006 71.471 21.3852" fill="#201D1D"></path><path d="M9.32725 79.715C9.99874 79.7227 10.6645 79.5913 11.2822 79.3291C11.8587 79.0852 12.3801 78.7287 12.8157 78.2806C13.2489 77.8291 13.5845 77.2939 13.8017 76.7081C14.0363 76.0713 14.1529 75.3975 14.1457 74.7193C14.152 74.0361 14.0355 73.3573 13.8017 72.7149C13.5869 72.1233 13.2512 71.5826 12.8157 71.1268C12.3798 70.6792 11.8584 70.3227 11.2822 70.0783C10.6644 69.8164 9.99871 69.685 9.32725 69.6924C8.64526 69.683 7.9687 69.8143 7.34029 70.0783C6.76464 70.3221 6.24737 70.6846 5.82253 71.1417C5.3954 71.6099 5.06109 72.1542 4.83721 72.746C4.59476 73.3757 4.47275 74.045 4.47749 74.7193C4.4691 75.4142 4.5911 76.1045 4.83721 76.7548C5.05789 77.3423 5.39874 77.8778 5.83817 78.3273C6.27592 78.7645 6.79734 79.1097 7.37157 79.3427C7.99233 79.5939 8.65717 79.7196 9.32725 79.7123M0.94149 61.3676C0.923069 61.1374 0.9587 60.9061 1.04556 60.6919C1.13242 60.4777 1.26813 60.2866 1.44196 60.1336C1.85155 59.8437 2.3486 59.7022 2.85024 59.7329C3.19931 59.7282 3.54722 59.7738 3.88317 59.8683C4.19597 59.9617 4.40473 60.028 4.50877 60.0713V68.9221C5.09688 68.2117 5.83401 67.638 6.66845 67.2413C7.65153 66.7644 8.73435 66.5269 9.82772 66.5481C10.916 66.5367 11.9957 66.7408 13.004 67.1486C13.955 67.5376 14.8169 68.1144 15.5377 68.8443C16.2665 69.5887 16.8405 70.4691 17.2268 71.4348C17.6434 72.4796 17.8513 73.5953 17.8388 74.7193C17.8487 75.8391 17.6361 76.9498 17.2132 77.9875C16.8174 78.9634 16.2205 79.846 15.4609 80.578C14.6886 81.3112 13.7802 81.8874 12.7864 82.2744C11.7047 82.6944 10.5521 82.9037 9.39117 82.8911C8.23588 82.9033 7.08726 82.7155 5.99661 82.336C4.9927 81.9833 4.0793 81.4145 3.32149 80.6701C2.54091 79.8835 1.94299 78.9361 1.56981 77.8947C1.12778 76.6369 0.91568 75.3104 0.943534 73.978L0.94149 61.3676Z" fill="#201D1D"></path><path d="M22.4369 72.4989C22.3885 71.6822 22.5219 70.8648 22.8275 70.1053C23.1332 69.3457 23.6035 68.6627 24.2049 68.105C25.586 66.9986 27.3313 66.4436 29.1009 66.5481C30.1955 66.5099 31.2865 66.6942 32.3071 67.0897C32.6612 67.2006 32.9711 67.4196 33.1931 67.7157C33.4151 68.0118 33.5379 68.3699 33.5441 68.7393C33.5405 69.0985 33.4376 69.4498 33.2469 69.7547C33.1261 69.9891 32.9616 70.1984 32.7621 70.3714C32.3371 70.1822 31.8975 70.0273 31.4476 69.9084C30.8655 69.757 30.2656 69.6844 29.664 69.6924C27.2237 69.6924 26.0035 70.9668 26.0035 73.5157V82.4592H22.4369V72.4989Z" fill="#201D1D"></path><path d="M37.1724 68.6133C37.151 68.3805 37.1853 68.146 37.2724 67.929C37.3595 67.7119 37.497 67.5184 37.6736 67.3644C38.087 67.0837 38.5824 66.948 39.0819 66.9785C39.4307 66.9739 39.7784 67.0195 40.1141 67.1139C40.4269 67.2042 40.6357 67.2719 40.7404 67.317V82.4571H37.1731L37.1724 68.6133ZM38.9561 60.0408C39.2403 60.0347 39.5228 60.0863 39.7864 60.1923C40.05 60.2983 40.2892 60.4566 40.4895 60.6574C40.8903 61.0592 41.1153 61.6024 41.1153 62.1687C41.1153 62.7349 40.8903 63.2782 40.4895 63.6799C40.078 64.0756 39.5282 64.2967 38.9561 64.2967C38.384 64.2967 37.8342 64.0756 37.4227 63.6799C37.0218 63.2782 36.7969 62.7349 36.7969 62.1687C36.7969 61.6024 37.0218 61.0592 37.4227 60.6574C37.623 60.4566 37.8621 60.2983 38.1257 60.1923C38.3893 60.0863 38.6718 60.0348 38.9561 60.0408Z" fill="#201D1D"></path><path d="M58.8558 74.7192C58.8602 74.0449 58.7382 73.3757 58.4961 72.746C58.2717 72.1542 57.9372 71.6099 57.5101 71.1417C57.0854 70.6847 56.5684 70.3223 55.993 70.0782C54.7352 69.564 53.3245 69.564 52.0667 70.0782C51.4966 70.3252 50.9809 70.6815 50.5489 71.1268C50.1131 71.5822 49.7776 72.123 49.5636 72.7148C49.3295 73.3571 49.2129 74.036 49.2196 74.7192C49.212 75.3974 49.3286 76.0714 49.5636 76.708C49.78 77.294 50.1154 77.8293 50.5489 78.2805C50.9805 78.7262 51.4963 79.0825 52.0667 79.329C52.6894 79.5945 53.3614 79.726 54.0387 79.7149C54.7088 79.7222 55.3736 79.5965 55.9944 79.3453C56.5652 79.1149 57.0817 78.7691 57.5115 78.3299C57.9425 77.8767 58.2778 77.342 58.4975 76.7574C58.7432 76.107 58.8652 75.4167 58.8572 74.7219M58.8572 61.3696C58.8386 61.1407 58.8725 60.9107 58.9565 60.6969C59.0405 60.4831 59.1724 60.2911 59.342 60.1356C59.7449 59.844 60.2377 59.7022 60.7347 59.7348C61.0835 59.7302 61.4312 59.7758 61.7669 59.8702C62.0797 59.9636 62.2878 60.03 62.3925 60.0733V73.9807C62.4206 75.3142 62.2033 76.6417 61.7513 77.8973C61.3682 78.9377 60.7653 79.8842 59.9833 80.6727C59.2293 81.4147 58.3213 81.9833 57.3231 82.3386C56.2485 82.7173 55.1154 82.9052 53.9755 82.8937C52.8147 82.9064 51.6623 82.6971 50.5809 82.277C49.5868 81.8902 48.6781 81.314 47.9058 80.5807C47.1444 79.8468 46.5427 78.9651 46.1378 77.9901C45.7043 76.955 45.4859 75.8433 45.4959 74.7219C45.4837 73.5979 45.6916 72.4823 46.1079 71.4375C46.4944 70.4718 47.0684 69.5915 47.797 68.8469C48.518 68.117 49.3802 67.5402 50.3314 67.1512C51.3394 66.7434 52.4189 66.5393 53.5069 66.5508C54.611 66.5273 55.7049 66.7649 56.6989 67.2439C57.5329 67.641 58.2697 68.2147 58.8579 68.9247L58.8572 61.3696Z" fill="#201D1D"></path><path d="M75.1572 79.562C75.8224 79.5706 76.4824 79.4446 77.0973 79.1917C77.6625 78.9587 78.1739 78.6132 78.6001 78.1763C79.0259 77.7308 79.3606 77.2071 79.5854 76.6343C80.0649 75.3674 80.0649 73.9702 79.5854 72.7034C79.3605 72.1214 79.0261 71.5874 78.6001 71.1302C78.1775 70.6849 77.6654 70.3332 77.0973 70.0979C75.8355 69.5988 74.4288 69.6041 73.1709 70.1128C72.5952 70.3566 72.0779 70.719 71.6532 71.1762C71.2323 71.6343 70.9034 72.1683 70.6842 72.7494C70.4518 73.36 70.3352 74.0081 70.3401 74.661C70.3095 75.3119 70.4099 75.9622 70.6355 76.5738C70.8611 77.1854 71.2074 77.7459 71.6539 78.2223C72.113 78.6752 72.6616 79.0282 73.2648 79.2592C73.8681 79.4901 74.5129 79.5939 75.1586 79.564M69.214 85.1148C69.297 85.1567 69.4799 85.2332 69.7621 85.3463C70.1094 85.4804 70.4646 85.5934 70.8256 85.6847C71.3201 85.8109 71.8214 85.9088 72.3271 85.9778C72.9437 86.0626 73.5657 86.1038 74.1882 86.101C74.8935 86.1015 75.5966 86.0239 76.2847 85.8695C76.9522 85.7249 77.5814 85.4411 78.1309 85.0369C78.7063 84.5944 79.1629 84.0173 79.4603 83.3568C79.8352 82.4807 80.0114 81.5331 79.9764 80.5814V80.2118C79.3822 80.8546 78.6778 81.3871 77.8963 81.7843C76.8864 82.3018 75.7614 82.5563 74.6261 82.5242C73.5256 82.5363 72.4325 82.3428 71.4036 81.9535C70.4582 81.5958 69.5959 81.0502 68.8693 80.3499C68.1495 79.6461 67.5849 78.8007 67.2114 77.8676C66.8043 76.8475 66.6022 75.7579 66.6164 74.6604C66.6043 73.5487 66.8226 72.4465 67.2577 71.4226C67.6687 70.4602 68.27 69.5898 69.0257 68.8632C69.8061 68.1254 70.7257 67.5491 71.7314 67.1675C72.8348 66.7475 74.0079 66.5383 75.1892 66.5508C76.3111 66.54 77.427 66.7171 78.4899 67.0748C79.4785 67.4101 80.3811 67.9576 81.1337 68.6784C81.9182 69.45 82.5172 70.3881 82.8861 71.4226C83.3274 72.6804 83.5393 74.0066 83.5117 75.3386V79.7793C83.5455 81.2011 83.3175 82.6171 82.8392 83.9572C82.4447 85.0366 81.8082 86.0122 80.978 86.8098C80.1709 87.558 79.2019 88.1118 78.1458 88.4283C76.9844 88.7772 75.7766 88.9489 74.5636 88.9373C73.7844 88.9431 73.0057 88.8979 72.2325 88.802C71.6062 88.7231 70.9846 88.6101 70.3707 88.4635C69.9149 88.356 69.4658 88.2222 69.0257 88.0628C68.6707 87.9274 68.4137 87.8211 68.243 87.7392L69.214 85.1148Z" fill="#201D1D"></path><path d="M91.3651 74.0111C91.8447 74.0319 92.3035 74.0422 92.7414 74.0422H94.0559C94.99 74.0604 95.9238 73.988 96.8439 73.8263C97.422 73.7278 97.9813 73.5405 98.5017 73.2712C98.839 73.1051 99.1133 72.8349 99.2837 72.5009C99.4076 72.2189 99.4715 71.9144 99.4714 71.6067C99.489 71.2548 99.4096 70.9048 99.2418 70.5946C99.074 70.2843 98.8242 70.0257 98.5194 69.8467C97.8023 69.4358 96.984 69.2329 96.1571 69.2611C95.4579 69.2464 94.7639 69.3831 94.1232 69.6619C93.5643 69.9112 93.0634 70.2733 92.6523 70.7253C92.2523 71.1728 91.9387 71.6901 91.7276 72.2511C91.5109 72.814 91.3893 73.4087 91.3678 74.0111M102.351 81.3219C102.184 81.4252 101.923 81.5692 101.568 81.7537C101.141 81.9675 100.696 82.1429 100.238 82.2777C99.6326 82.4597 99.016 82.6039 98.3922 82.7096C97.6325 82.8379 96.863 82.8997 96.0925 82.8944C94.9806 82.9036 93.8751 82.7265 92.8223 82.3704C91.8386 82.0377 90.9337 81.5078 90.1635 80.8135C89.3896 80.1081 88.7761 79.246 88.3643 78.2852C87.9084 77.1968 87.6847 76.0261 87.7074 74.8471C87.6925 73.6903 87.9106 72.5422 88.3486 71.4706C88.7551 70.4835 89.3624 69.5909 90.1323 68.8489C90.9069 68.111 91.8217 67.5345 92.823 67.1532C93.9068 66.7433 95.0583 66.5394 96.2176 66.5521C97.1936 66.5356 98.1658 66.6762 99.0967 66.9684C99.8617 67.2094 100.577 67.5852 101.209 68.0779C102.011 68.7299 102.576 69.6265 102.816 70.6295C103.056 71.6325 102.959 72.6863 102.538 73.6286C102.221 74.264 101.719 74.79 101.099 75.1389C100.234 75.6249 99.2923 75.9588 98.314 76.1258C96.8481 76.3877 95.36 76.5065 93.8709 76.4805C93.4534 76.4805 93.0624 76.4764 92.6972 76.4656C92.3321 76.4548 91.9411 76.4406 91.5242 76.4196C91.5985 76.9251 91.7737 77.4107 92.0397 77.8476C92.3056 78.2845 92.6568 78.664 93.0726 78.9635C94.1708 79.6767 95.4713 80.0172 96.78 79.9342C97.7103 79.9398 98.6353 79.7939 99.5183 79.5023C99.8378 79.3967 100.151 79.2733 100.457 79.1327C100.717 79.009 100.91 78.9163 101.035 78.8545L102.351 81.3219Z" fill="#201D1D"></path></g><defs><clipPath id="clip0_242_11"><rect width="102" height="88" fill="white" transform="translate(0.941406 0.93457)"></rect></clipPath></defs></svg> 