<svg width="137" height="27" viewBox="0 0 137 27" fill="none" xmlns="http://www.w3.org/2000/svg">
<g clip-path="url(#clip0_2011_477)">
<mask id="mask0_2011_477" style="mask-type:luminance" maskUnits="userSpaceOnUse" x="-1" y="-1" width="138" height="28">
<path d="M136.475 -0.0012207H-0.000488281V26.0437H136.475V-0.0012207Z" fill="white"/>
</mask>
<g mask="url(#mask0_2011_477)">
<path d="M4.93947 5.47681L4.82826 9.15399L10.3625 8.7705L10.326 10.532L4.94121 10.3797L4.86649 19.802C4.83 23.3251 5.98028 23.9774 7.83776 23.9774C9.06276 23.9774 10.1036 23.4792 11.1427 22.7517L11.2539 22.8664C10.3625 24.2068 8.57971 26.0077 6.46333 26.0077C3.64149 26.0077 2.22883 24.5526 2.22883 21.2966C2.22883 20.1855 2.26532 19.1515 2.26532 18.3093L2.34004 10.265L-0.000488281 10.2274V10.0356L4.79004 5.4786H4.93773L4.93947 5.47681Z" fill="white"/>
<path d="M31.3802 25.4702V25.6226L27.7782 25.5455L24.065 25.6226V25.4702C25.6983 24.8574 26.1814 24.1298 26.2561 23.3252C26.4038 21.6784 26.4038 17.6571 26.3673 15.358C26.2926 11.6808 25.217 10.4945 22.6159 10.4945C21.5385 10.4945 19.9799 10.9156 18.1589 11.7579C18.0477 14.7075 17.973 20.1462 18.1954 23.3252C18.2701 24.0904 18.715 24.8197 20.3865 25.4702V25.6226L16.5986 25.5455L12.9583 25.6226V25.4702C14.7411 24.7427 15.2606 24.0528 15.2989 23.3252C15.7072 17.2736 15.4848 8.92472 15.3736 3.25484L12.8489 1.95206V1.83737L18.1225 -0.0012207L18.086 11.2973C20.1276 9.30641 22.1345 8.08069 24.1397 8.08069C26.9251 8.08069 28.9685 9.6899 28.9685 14.4763C28.9685 15.9691 28.8937 21.0637 29.0432 23.2087C29.1179 24.2051 29.5627 24.7033 31.3837 25.4684L31.3802 25.4702Z" fill="white"/>
<path d="M42.0003 8.08065C45.7136 8.08065 48.3512 11.0303 48.6848 15.435L48.5371 15.5873L36.5043 15.5103V16.0084C36.5043 20.3755 38.9926 23.6298 43.2271 23.6298C45.121 23.6298 46.9785 22.9793 48.7978 21.4848L48.9455 21.5995C47.3121 24.5491 44.8969 26.0418 41.8891 26.0418C37.0986 26.0418 33.9414 22.3647 33.9414 17.4241C33.9414 12.1001 37.6181 8.07886 42.0003 8.07886V8.08065ZM41.4426 9.15406C38.9543 9.15406 36.9857 11.3761 36.5773 14.6698L45.4911 14.2487C45.3052 11.0697 43.7449 9.15406 41.4426 9.15406Z" fill="white"/>
<path d="M65.9166 8.08065C69.6298 8.08065 72.2675 11.0303 72.6011 15.435L72.4534 15.5873L60.4206 15.5103V16.0084C60.4206 20.3755 62.9088 23.6298 67.1433 23.6298C69.0373 23.6298 70.8948 22.9793 72.714 21.4848L72.8617 21.5995C71.2284 24.5491 68.8131 26.0418 65.8054 26.0418C61.0149 26.0418 57.8577 22.3647 57.8577 17.4241C57.8577 12.1001 61.5344 8.07886 65.9166 8.07886V8.08065ZM65.3588 9.15406C62.8706 9.15406 60.9019 11.3761 60.4936 14.6698L69.4074 14.2487C69.2215 11.0697 67.6611 9.15406 65.3588 9.15406Z" fill="white"/>
<path d="M79.5081 5.47681L79.3969 9.15399L84.9311 8.7705L84.8946 10.532L79.5098 10.3797L79.4351 19.802C79.3986 23.3251 80.5489 23.9774 82.4064 23.9774C83.6314 23.9774 84.6722 23.4792 85.7113 22.7517L85.8225 22.8664C84.9311 24.2068 83.1483 26.0077 81.0319 26.0077C78.2084 26.0077 76.7974 24.5526 76.7974 21.2966C76.7974 20.1855 76.8339 19.1515 76.8339 18.3093L76.9086 10.265L74.5681 10.2274V10.0356L79.3586 5.4786H79.5063L79.5081 5.47681Z" fill="white"/>
<path d="M105.949 25.4702V25.6226L102.347 25.5455L98.6336 25.6226V25.4702C100.267 24.8574 100.75 24.1298 100.825 23.3252C100.974 21.6784 100.974 17.6571 100.936 15.358C100.861 11.6808 99.7839 10.4945 97.1845 10.4945C96.1071 10.4945 94.5468 10.9156 92.7275 11.7579C92.6163 14.7075 92.5416 20.1462 92.764 23.3252C92.8387 24.0904 93.2836 24.8197 94.9551 25.4702V25.6226L91.1672 25.5455L87.5287 25.6226V25.4702C89.3114 24.7427 89.831 24.0528 89.8692 23.3252C90.2775 17.2736 90.0551 8.92472 89.9439 3.25484L87.4175 1.95206V1.83737L92.6911 -0.0012207L92.6546 11.2973C94.698 9.30641 96.7031 8.08069 98.7083 8.08069C101.494 8.08069 103.537 9.6899 103.537 14.4763C103.537 15.9691 103.462 21.0637 103.612 23.2087C103.686 24.2051 104.131 24.7033 105.952 25.4684L105.949 25.4702Z" fill="white"/>
<path d="M116.569 8.08065C120.282 8.08065 122.92 11.0303 123.253 15.435L123.106 15.5873L111.073 15.5103V16.0084C111.073 20.3755 113.561 23.6298 117.796 23.6298C119.69 23.6298 121.547 22.9793 123.366 21.4848L123.514 21.5995C121.881 24.5491 119.465 26.0418 116.458 26.0418C111.667 26.0418 108.51 22.3647 108.51 17.4241C108.51 12.1001 112.187 8.07886 116.569 8.07886V8.08065ZM116.011 9.15406C113.523 9.15406 111.554 11.3761 111.146 14.6698L120.06 14.2487C119.874 11.0697 118.313 9.15406 116.011 9.15406Z" fill="white"/>
<path d="M133.987 25.4703V25.6226L129.568 25.5456L125.928 25.6226V25.4703C127.674 24.7427 128.155 24.0528 128.23 23.3253C128.602 19.6857 128.416 14.7076 128.341 11.3368L125.816 10.034V9.91934L131.015 8.08075L130.977 10.9533C132.612 9.76523 134.32 8.84594 136.103 7.96606L136.475 11.1827L131.126 11.2598C131.015 14.2094 130.977 19.6481 131.163 22.8647C131.238 24.0134 131.46 24.6263 133.985 25.4685L133.987 25.4703Z" fill="white"/>
</g>
</g>
<defs>
<clipPath id="clip0_2011_477">
<rect width="137" height="27" fill="white"/>
</clipPath>
</defs>
</svg>
