<svg width="230" height="42" viewBox="0 0 230 42" fill="none" xmlns="http://www.w3.org/2000/svg">
<path d="M29.886 35.9406H0V40.4843H29.886V35.9406Z" fill="#070C47"/>
<path d="M29.886 28.8813H0V33.4251H29.886V28.8813Z" fill="#070C47"/>
<path d="M29.886 21.8224H0V26.3661H29.886V21.8224Z" fill="#070C47"/>
<path d="M29.886 14.7634H0V19.3072H29.886V14.7634Z" fill="#070C47"/>
<path d="M29.886 7.70422H0V12.248H29.886V7.70422Z" fill="#BE9572"/>
<path d="M29.886 0.645264H0V5.18902H29.886V0.645264Z" fill="#070C47"/>
<path d="M230.001 40.8358H219.372L218.588 39.6999C216.776 37.1035 215.099 34.48 213.422 31.8836C211.745 34.48 209.987 37.1035 208.202 39.6999L207.418 40.8358H196.978L208.391 24.9868L197.573 9.84095H208.256L209.392 11.4637C210.825 13.6274 212.286 15.7911 213.665 17.9548C214.991 15.7911 216.424 13.5733 217.857 11.4637L218.993 9.84095H229.379L218.696 24.8516L230.001 40.8358ZM83.6004 25.3384C83.6004 35.1832 89.9563 41.5661 99.8822 41.5661C109.808 41.5661 116.11 35.2102 116.11 25.3384C116.11 15.4666 109.754 9.11071 99.8822 9.11071C90.0104 9.11071 83.6004 15.4666 83.6004 25.3384ZM106.617 25.3384C106.617 31.2345 104.02 34.0473 99.8822 34.0473C95.7441 34.0473 93.0936 31.2345 93.0936 25.3384C93.0936 19.4423 95.6901 16.6295 99.8822 16.6295C104.074 16.6295 106.617 19.4423 106.617 25.3384ZM140.235 9.46231C139.586 9.40821 138.91 9.35412 138.18 9.35412C133.555 9.35412 130.661 11.7612 129.335 15.6018V9.84095H120.194V40.8358H129.552V26.4202C129.552 20.6053 132.554 18.0089 137.774 18.0089H140.181V9.48935M163.305 16.6836V9.84095H157.355V0.645264H147.997V9.84095H143.372V16.6836H147.997V32.1811C147.997 38.5369 151.243 41.0793 158.978 41.0793C160.357 41.0793 161.872 41.0252 163.305 40.8358V33.8579H160.898C158.491 33.8579 157.355 33.4252 157.355 31.1533V16.6836H163.305ZM197.979 26.2309C197.979 15.7911 191.677 9.11071 181.994 9.11071C172.312 9.11071 166.01 15.5477 166.01 25.3384C166.01 35.1291 172.501 41.5661 182.102 41.5661C189.54 41.5661 195.571 37.7255 197.248 31.1804H188.35C187.268 33.3981 185.24 34.6693 182.102 34.6693C178.451 34.6693 175.665 32.5597 175.016 28.1241H197.952V26.258L197.979 26.2309ZM175.07 22.1469C175.801 17.8196 178.424 16.0075 181.859 16.0075C185.646 16.0075 188.107 18.2793 188.756 22.1469H175.07ZM71.2944 9.84095L64.6681 36.1839L58.0418 9.84095H46.2227L56.5272 40.5113H72.8361L83.1406 9.84095H71.2944Z" fill="#070C47"/>
</svg>
