<svg width="162" height="37" viewBox="0 0 162 37" fill="none" xmlns="http://www.w3.org/2000/svg">
<mask id="mask0_2011_466" style="mask-type:luminance" maskUnits="userSpaceOnUse" x="0" y="0" width="162" height="37">
<path d="M162 0H0V36.2988H162V0Z" fill="white"/>
</mask>
<g mask="url(#mask0_2011_466)">
<path d="M44.1179 7.11571C44.1179 4.61713 44.1179 4.17429 44.0939 3.66369C44.0675 3.15308 43.9379 2.86269 43.4315 2.75259C43.2601 2.71731 43.0856 2.69947 42.9107 2.69935C42.8495 2.69935 42.787 2.6691 42.787 2.60134C42.787 2.53358 42.8663 2.48035 43.0331 2.48035C43.7207 2.48035 44.6243 2.52633 44.7155 2.52633C44.8055 2.52633 45.7415 2.48035 46.2011 2.48035C46.3715 2.48035 46.4435 2.5106 46.4435 2.60134C46.4435 2.69209 46.3823 2.69935 46.3235 2.69935C46.1951 2.7054 46.0667 2.72355 45.9407 2.75259C45.5291 2.82881 45.4055 3.10348 45.3731 3.66369C45.3407 4.2239 45.3443 4.61713 45.3443 7.11571V8.07158H45.4055C45.6659 7.76909 48.4355 4.82888 48.9887 4.20454C49.4159 3.73991 49.8107 3.32369 49.8107 3.07081C49.8201 3.00035 49.8058 2.92873 49.7699 2.86753C49.7346 2.80722 49.6794 2.76138 49.6139 2.73807C49.5359 2.70298 49.4735 2.67273 49.4735 2.60497C49.4735 2.53721 49.5503 2.49971 49.6583 2.49971C49.9619 2.49971 50.4383 2.54447 50.8079 2.54447C50.8799 2.54447 51.8927 2.49971 52.2767 2.49971C52.4435 2.49971 52.5047 2.52996 52.5047 2.60497C52.5047 2.6812 52.4723 2.71871 52.3487 2.71871C52.0518 2.73376 51.7612 2.81081 51.4955 2.94497C50.8667 3.22931 50.5295 3.63465 49.8431 4.31827C49.4591 4.69578 46.7951 7.42183 46.4759 7.82354C46.8743 8.2809 50.0567 11.7293 50.6855 12.3306C51.9695 13.5817 52.2299 13.8431 52.9631 14.1565C53.2655 14.2811 53.5871 14.3501 53.9111 14.3609C54.0191 14.3609 54.1139 14.3948 54.1139 14.4662C54.1139 14.5388 54.0335 14.5872 53.7731 14.5872H52.9955C52.5659 14.5872 52.2731 14.5872 51.9395 14.557C51.1259 14.4819 50.7467 14.1262 50.0891 13.5817C49.4303 13.0372 46.1435 9.30937 45.4091 8.36439H45.3335V9.92886C45.3335 11.4679 45.3335 12.7311 45.4091 13.3966C45.4571 13.8685 45.5471 14.2206 46.0091 14.2847C46.2191 14.3113 46.4651 14.3416 46.6031 14.3416C46.7398 14.3416 46.7219 14.39 46.7219 14.4481C46.7219 14.5037 46.6499 14.5691 46.4831 14.5691C45.7307 14.5691 44.8415 14.5231 44.7227 14.5231C44.6027 14.5231 43.7099 14.5691 43.2539 14.5691C43.0835 14.5691 43.0079 14.5388 43.0079 14.4481C43.0079 14.3573 43.0367 14.3416 43.1279 14.3416C43.2815 14.3367 43.435 14.3174 43.5863 14.2847C43.8935 14.2206 43.9703 13.8697 44.0303 13.3966C44.1071 12.7311 44.1071 11.4679 44.1071 9.92886L44.1179 7.11571Z" fill="white"/>
<path d="M58.8455 4.56036C59.0147 4.10662 59.0771 4.0304 59.1671 4.0304C59.2571 4.0304 59.3471 4.22399 59.4887 4.52648C59.7311 5.10121 61.8863 10.7154 62.7143 12.7845C63.2027 13.9944 63.5675 14.1674 63.8651 14.2703C64.0391 14.3187 64.2191 14.3429 64.4003 14.3429C64.4723 14.3429 64.5659 14.3755 64.5659 14.4639C64.5659 14.5498 64.4183 14.5691 64.2587 14.5691C64.0991 14.5691 63.0683 14.5691 62.1323 14.5389C61.8719 14.5389 61.6583 14.5389 61.6583 14.4481C61.6583 14.3574 61.6907 14.3755 61.7531 14.3417C61.8059 14.3207 61.8501 14.2824 61.8786 14.233C61.9071 14.1837 61.9183 14.126 61.9103 14.0694C61.9053 14.0319 61.8922 13.996 61.8719 13.9642L60.6635 10.8437C60.6311 10.788 60.6203 10.7723 60.5447 10.7723H57.4343C57.404 10.7714 57.3743 10.7813 57.3503 10.8001C57.3255 10.82 57.3082 10.8476 57.3011 10.8788L56.5343 13.0519C56.4193 13.343 56.352 13.6512 56.3351 13.9642C56.3351 14.24 56.5631 14.3417 56.7983 14.3417H56.9183C57.0227 14.3417 57.0551 14.3901 57.0551 14.4627C57.0551 14.5353 56.9759 14.5691 56.8523 14.5691C56.5343 14.5691 55.7999 14.5232 55.6487 14.5232C55.4963 14.5232 54.8387 14.5691 54.2855 14.5691C54.1151 14.5691 54.0251 14.5389 54.0251 14.4627C54.0258 14.4301 54.0387 14.399 54.0611 14.3755C54.0726 14.3643 54.0861 14.3556 54.1009 14.3497C54.1158 14.344 54.1316 14.3412 54.1475 14.3417C54.2795 14.3392 54.4115 14.3296 54.5423 14.3114C55.1567 14.2364 55.4207 13.7488 55.6775 13.064L58.8455 4.56036ZM60.3455 10.2314C60.4043 10.2314 60.4043 10.1976 60.3935 10.1334L59.0579 6.4128C58.9859 6.20106 58.9019 6.20106 58.8299 6.4128L57.5723 10.1334C57.5723 10.1976 57.5723 10.2314 57.6203 10.2314H60.3455ZM65.9735 14.3683C65.7923 14.2775 65.7743 14.2279 65.7743 13.8613C65.7743 13.1837 65.8391 12.6393 65.8499 12.4215C65.8499 12.2763 65.8823 12.194 65.9579 12.194C66.0347 12.194 66.0851 12.2424 66.0851 12.3573C66.0815 12.5219 66.0959 12.6864 66.1283 12.8486C66.3419 13.8468 67.351 14.1941 68.2544 14.1941C69.5854 14.1941 70.2764 13.4076 70.2764 12.3876C70.2764 11.3664 69.7702 10.9502 68.573 10.0197L67.9654 9.53571C66.5183 8.40198 66.0335 7.56953 66.0335 6.62818C66.0335 5.02498 67.2454 4.06427 69.0214 4.06427C69.4886 4.0679 69.9537 4.12356 70.4102 4.22762C70.5648 4.27118 70.7241 4.29296 70.8841 4.29175C70.9916 4.29175 71.0245 4.3099 71.0245 4.39338C70.9809 4.87124 70.9607 5.35097 70.964 5.83081C70.964 6.04256 70.964 6.1333 70.8551 6.1333C70.7469 6.1333 70.7496 6.06434 70.7348 5.95907C70.6931 5.72844 70.6206 5.5046 70.519 5.29359C70.4276 5.13509 69.9826 4.61602 68.7794 4.61602C67.7953 4.61602 66.9707 5.13509 66.9707 6.08733C66.9707 6.96092 67.3832 7.45217 68.7142 8.39835L69.098 8.66575C70.7348 9.83457 71.3028 10.7832 71.3028 11.9447C71.3102 12.4142 71.196 12.8764 70.9748 13.2854C70.757 13.6909 70.4364 14.0308 70.0452 14.2703C69.4845 14.6478 68.6376 14.7422 67.9042 14.7422C67.2414 14.7549 66.5845 14.6276 65.9735 14.3683ZM75.2197 8.22412C75.2197 6.10668 75.2197 5.72434 75.1834 5.29359C75.1478 4.86285 75.0752 4.6015 74.6336 4.53737C74.4817 4.51914 74.3277 4.50905 74.1745 4.50712C74.1489 4.50088 74.1254 4.48746 74.1073 4.4684C74.0884 4.44851 74.0757 4.42381 74.0696 4.39701C74.0696 4.31474 74.1314 4.27965 74.28 4.27965C74.8944 4.27965 75.7044 4.31474 75.8301 4.31474C75.9578 4.31474 76.7927 4.27965 77.1913 4.27965C77.3472 4.27965 77.4192 4.31474 77.4192 4.39701C77.4118 4.42611 77.3956 4.45228 77.3735 4.47203C77.352 4.49168 77.3244 4.50395 77.2955 4.50712C77.1826 4.50536 77.0703 4.51549 76.9594 4.53737C76.5971 4.59787 76.5285 4.83986 76.5036 5.29359C76.4781 5.74733 76.4714 6.10668 76.4714 8.22412V10.1141C76.4714 12.0839 76.8828 12.897 77.4622 13.4463C77.7284 13.7077 78.0443 13.9073 78.3885 14.0343C78.734 14.1602 79.1003 14.2098 79.4654 14.1795C79.8552 14.1832 80.2404 14.1009 80.598 13.9375C80.957 13.7729 81.2776 13.5328 81.5377 13.2333C82.1589 12.4783 82.304 11.3434 82.304 9.94105V8.22291C82.304 6.10547 82.2866 5.72434 82.2684 5.29359C82.2489 4.86285 82.177 4.6015 81.732 4.53737C81.5808 4.51927 81.4282 4.50917 81.2763 4.50712C81.2487 4.50364 81.2232 4.49084 81.2037 4.47082C81.1848 4.45114 81.1721 4.42569 81.168 4.39822C81.168 4.31353 81.2265 4.27965 81.3778 4.27965C81.974 4.27965 82.7558 4.31474 82.825 4.31474C82.8936 4.31474 83.5476 4.27965 83.957 4.27965C84.1129 4.27965 84.1701 4.31474 84.1701 4.39701C84.1667 4.42531 84.1539 4.45166 84.1344 4.47203C84.115 4.49169 84.0894 4.50407 84.0625 4.50712C83.9489 4.50526 83.836 4.51541 83.7251 4.53737C83.3641 4.61239 83.2814 4.83986 83.2512 5.29359C83.2223 5.74733 83.2512 6.10668 83.2512 8.22412V9.67607C83.2512 11.151 83.063 12.799 81.9921 13.7488C81.2144 14.4385 80.2162 14.7954 79.1978 14.747C78.7488 14.747 77.3493 14.7155 76.3941 13.7899C75.7225 13.1474 75.2197 12.2013 75.2197 10.2084V8.22412ZM97.5253 12.8256C97.5757 13.3096 97.6658 14.0428 98.215 14.2364C98.498 14.3259 98.7911 14.3707 99.0875 14.3683C99.1473 14.3683 99.1917 14.3985 99.1917 14.4699C99.1917 14.5425 99.0721 14.5909 98.9134 14.5909C98.6136 14.5909 97.1052 14.5909 96.6239 14.5304C96.3026 14.4941 96.2401 14.4554 96.2401 14.3828C96.2414 14.3574 96.2522 14.332 96.2676 14.3126C96.2838 14.2935 96.3066 14.2811 96.3308 14.2775C96.4081 14.2582 96.4256 14.0501 96.3974 13.7936L95.7527 6.88469H95.7205L92.4657 13.8238C92.1901 14.4167 92.1034 14.5462 91.9884 14.5462C91.8728 14.5462 91.7962 14.4179 91.536 13.9218C90.9882 12.8815 90.4619 11.8301 89.9557 10.7687C89.5584 9.90233 88.4769 7.61914 88.2423 7.06256H88.1804L87.6635 13.1995C87.6453 13.4052 87.6453 13.6653 87.6453 13.8916C87.6447 13.9845 87.6769 14.0747 87.7368 14.1457C87.7966 14.2158 87.8786 14.2594 87.9673 14.2703C88.1374 14.3126 88.3128 14.3368 88.4876 14.3429C88.5145 14.345 88.5394 14.3566 88.5589 14.3755C88.5777 14.3952 88.5898 14.4208 88.5925 14.4481C88.5925 14.5389 88.5024 14.5691 88.3538 14.5691C87.847 14.5691 87.2037 14.5232 87.0962 14.5232C86.9879 14.5232 86.3325 14.5691 85.9682 14.5691C85.8264 14.5691 85.735 14.5389 85.735 14.4481C85.735 14.3574 85.7975 14.3417 85.8694 14.3417C86.0038 14.3368 86.1383 14.3223 86.27 14.2969C86.7157 14.2207 86.7298 13.7258 86.791 13.2079L87.7717 4.33289C87.7717 4.1889 87.847 4.09089 87.9236 4.09089C87.9841 4.09452 88.0413 4.1163 88.091 4.1526C88.1387 4.1889 88.1757 4.24093 88.1986 4.29901L92.2667 12.7457L96.1944 4.31837C96.2522 4.1889 96.314 4.09089 96.4034 4.09089C96.4942 4.09089 96.5735 4.20463 96.6024 4.46961L97.5253 12.8256ZM103.57 10.6247C103.57 11.9254 103.57 13.0035 103.633 13.5625C103.677 13.9605 103.723 14.2207 104.12 14.2848C104.319 14.3114 104.612 14.3417 104.733 14.3417C104.747 14.3417 104.762 14.345 104.776 14.3512C104.79 14.3575 104.802 14.3666 104.811 14.378C104.821 14.3894 104.829 14.4028 104.834 14.4174C104.84 14.4319 104.842 14.4473 104.84 14.4627C104.84 14.5232 104.779 14.5691 104.626 14.5691C103.879 14.5691 103.003 14.5232 102.942 14.5232C102.881 14.5232 102.024 14.5691 101.615 14.5691C101.473 14.5691 101.399 14.5389 101.399 14.4627C101.397 14.4397 101.403 14.4168 101.414 14.397C101.425 14.3771 101.443 14.3612 101.464 14.3513C101.477 14.3451 101.492 14.3418 101.507 14.3417C101.643 14.3368 101.78 14.3175 101.915 14.2848C102.179 14.2207 102.227 13.9605 102.277 13.5625C102.346 13.0035 102.356 11.9254 102.356 10.6247V8.22412C102.356 6.10668 102.356 5.72434 102.328 5.29359C102.299 4.86285 102.19 4.61602 101.9 4.56036C101.764 4.53092 101.624 4.51472 101.485 4.51196C101.458 4.50878 101.432 4.49593 101.413 4.47566C101.394 4.45511 101.382 4.42871 101.38 4.40064C101.38 4.31837 101.441 4.28449 101.593 4.28449C102.034 4.28449 102.881 4.31837 102.953 4.31837C103.025 4.31837 103.889 4.28449 104.298 4.28449C104.454 4.28449 104.514 4.31837 104.514 4.40064C104.508 4.428 104.495 4.45316 104.475 4.47324C104.456 4.49225 104.432 4.50528 104.406 4.51075C104.293 4.5083 104.181 4.51845 104.07 4.541C103.709 4.61723 103.626 4.81324 103.597 5.29722C103.567 5.78121 103.597 6.11031 103.597 8.22775L103.57 10.6247ZM115.4 11.0966C115.4 9.99308 115.368 9.83457 114.815 9.72084C114.709 9.72084 114.479 9.69059 114.359 9.69059C114.332 9.68615 114.306 9.67304 114.287 9.65308C114.267 9.63238 114.255 9.60616 114.251 9.57806C114.251 9.48732 114.311 9.46796 114.463 9.46796C115.075 9.46796 115.979 9.50183 116.054 9.50183C116.13 9.50183 116.959 9.46796 117.371 9.46796C117.523 9.46796 117.588 9.48731 117.588 9.57685C117.583 9.60508 117.57 9.63123 117.551 9.65187C117.531 9.6721 117.506 9.68568 117.479 9.69059C117.366 9.68803 117.253 9.69818 117.143 9.72084C116.782 9.7898 116.666 9.99308 116.637 10.4771C116.608 10.961 116.637 11.3131 116.637 11.8879V13.4003C116.637 14.0319 116.618 14.0464 116.452 14.1565C115.555 14.5718 114.576 14.7785 113.588 14.7615C112.564 14.7615 110.652 14.6405 109.154 13.3096C108.641 12.8126 108.234 12.2142 107.961 11.5515C107.683 10.8821 107.543 10.1631 107.548 9.43771C107.518 8.55571 107.71 7.68031 108.106 6.89316C108.495 6.11648 109.078 5.45548 109.798 4.97537C110.885 4.34932 112.128 4.0492 113.378 4.11025C114.072 4.11628 114.762 4.19208 115.44 4.33652C115.796 4.42121 116.16 4.46719 116.525 4.47687C116.663 4.47687 116.695 4.54463 116.695 4.60997C116.637 5.2464 116.611 5.88647 116.614 6.52654C116.614 6.75281 116.557 6.81331 116.467 6.81331C116.376 6.81331 116.372 6.73829 116.372 6.60882C116.339 6.28954 116.234 5.98213 116.065 5.70982C115.729 5.19559 114.705 4.65473 112.96 4.65473C111.947 4.59305 110.947 4.90484 110.145 5.53195C109.365 6.15992 108.815 7.36989 108.815 8.95735C108.802 10.3464 109.311 11.6888 110.239 12.7155C110.689 13.1766 111.227 13.5412 111.821 13.7875C112.41 14.0319 113.041 14.1505 113.675 14.1384C114.169 14.165 114.662 14.0791 115.122 13.8879C115.288 13.7899 115.396 13.7294 115.396 13.4717L115.4 11.0978V11.0966ZM123.49 4.56036C123.66 4.10662 123.721 4.0304 123.815 4.0304C123.91 4.0304 123.996 4.22399 124.134 4.52648C124.375 5.10121 126.535 10.7154 127.36 12.7845C127.85 13.9944 128.213 14.1674 128.509 14.2703C128.684 14.3187 128.863 14.3429 129.044 14.3429C129.116 14.3429 129.211 14.3755 129.211 14.4639C129.211 14.5498 129.062 14.5691 128.906 14.5691C128.752 14.5691 127.71 14.5691 126.78 14.5389C126.516 14.5389 126.304 14.5389 126.304 14.4481C126.304 14.3574 126.332 14.3755 126.401 14.3417C126.435 14.3278 126.466 14.3062 126.492 14.2785C126.517 14.2509 126.535 14.2178 126.546 14.182C126.557 14.1455 126.56 14.1072 126.556 14.0694C126.55 14.0319 126.536 13.9961 126.516 13.9642L125.312 10.8437C125.303 10.8195 125.285 10.7991 125.263 10.7856C125.241 10.7729 125.214 10.7686 125.189 10.7735H122.087C122.055 10.7718 122.023 10.7812 121.997 10.8001C121.971 10.8195 121.951 10.8472 121.942 10.8788L121.182 13.0519C121.066 13.3422 120.999 13.6496 120.984 13.9642C120.984 14.24 121.208 14.3417 121.439 14.3417H121.562C121.674 14.3417 121.703 14.3901 121.703 14.4627C121.703 14.5353 121.62 14.5691 121.505 14.5691C121.182 14.5691 120.449 14.5232 120.296 14.5232C120.145 14.5232 119.48 14.5691 118.933 14.5691C118.763 14.5691 118.673 14.5389 118.673 14.4627C118.675 14.4308 118.687 14.4007 118.71 14.378C118.732 14.3554 118.761 14.3424 118.793 14.3417C118.925 14.3392 119.058 14.3296 119.19 14.3114C119.804 14.2364 120.065 13.7488 120.325 13.064L123.49 4.56036ZM124.987 10.2314C125.055 10.2314 125.055 10.1976 125.038 10.1334L123.703 6.4128C123.631 6.20106 123.551 6.20106 123.475 6.4128L122.231 10.1225C122.231 10.1867 122.231 10.2193 122.268 10.2193L124.987 10.2314ZM130.621 14.3683C130.436 14.2775 130.422 14.2279 130.422 13.8613C130.422 13.1837 130.483 12.6393 130.501 12.4215C130.501 12.2763 130.526 12.194 130.607 12.194C130.686 12.194 130.725 12.2424 130.725 12.3573C130.722 12.5219 130.737 12.6877 130.772 12.8486C130.989 13.8468 131.998 14.1941 132.902 14.1941C134.229 14.1941 134.917 13.4076 134.917 12.3876C134.917 11.3664 134.414 10.9502 133.222 10.0197L132.609 9.53571C131.164 8.40198 130.686 7.56953 130.686 6.62818C130.686 5.02498 131.894 4.06427 133.665 4.06427C134.133 4.06856 134.598 4.12331 135.054 4.22762C135.211 4.27239 135.373 4.29296 135.535 4.29175C135.641 4.29175 135.669 4.3099 135.669 4.39338C135.623 4.87132 135.601 5.35046 135.605 5.83081C135.605 6.04256 135.585 6.1333 135.503 6.1333C135.42 6.1333 135.395 6.06434 135.384 5.95907C135.345 5.72704 135.277 5.50097 135.181 5.28633C135.088 5.12662 134.646 4.60876 133.438 4.60876C132.451 4.60876 131.648 5.12662 131.648 6.08007C131.648 6.95366 132.06 7.44491 133.391 8.39109L133.775 8.65849C135.409 9.82731 135.973 10.7759 135.973 11.9375C135.979 12.4057 135.868 12.8691 135.646 13.2769C135.429 13.6822 135.109 14.0221 134.718 14.2618C134.157 14.6405 133.311 14.7349 132.581 14.7349C131.909 14.7544 131.241 14.6294 130.621 14.3683ZM139.665 8.22412C139.665 6.10668 139.665 5.72434 139.633 5.29359C139.601 4.86285 139.531 4.6015 139.083 4.53737C138.931 4.51931 138.778 4.50922 138.624 4.50712C138.597 4.50106 138.573 4.48764 138.554 4.4684C138.535 4.44854 138.521 4.42391 138.515 4.39701C138.515 4.31474 138.581 4.27965 138.728 4.27965C139.344 4.27965 140.219 4.31474 140.291 4.31474H143.506C143.809 4.31474 144.009 4.24577 144.113 4.23004C144.218 4.21552 144.244 4.16954 144.298 4.16954C144.351 4.16954 144.359 4.23004 144.359 4.29538C144.313 4.50867 144.279 4.72439 144.258 4.94149C144.258 5.06612 144.208 5.67957 144.179 5.83444C144.179 5.89494 144.113 5.97843 144.059 5.97843C144.005 5.97843 143.947 5.90946 143.947 5.80419C143.948 5.641 143.923 5.47876 143.871 5.32384C143.777 5.09637 143.64 4.99836 142.905 4.90762C142.681 4.87374 141.122 4.85922 140.964 4.85922C140.905 4.85922 140.891 4.90762 140.891 4.99836V8.696C140.891 8.79885 140.891 8.8412 140.964 8.8412C141.13 8.8412 142.905 8.8412 143.216 8.80611C143.527 8.77223 143.737 8.76497 143.871 8.62462C144.005 8.48426 144.023 8.43949 144.073 8.43949C144.124 8.43949 144.146 8.47337 144.146 8.55686C144.146 8.64034 144.073 8.85935 144.041 9.31308C144.009 9.58169 143.98 10.0923 143.98 10.1903C143.98 10.2883 143.947 10.4553 143.856 10.4553C143.766 10.4553 143.763 10.402 143.763 10.3186C143.769 10.1687 143.75 10.0188 143.705 9.87571C143.654 9.6797 143.538 9.52119 143.017 9.45707C142.656 9.40383 141.21 9.3881 140.978 9.3881C140.905 9.3881 140.891 9.43771 140.891 9.49094V10.6247C140.891 11.082 140.873 12.6635 140.891 12.943C140.92 13.8541 141.162 14.0283 142.496 14.0283C142.949 14.0525 143.401 14.0041 143.838 13.8843C144.019 13.8061 144.174 13.6757 144.282 13.5092C144.391 13.3406 144.45 13.1442 144.454 12.943C144.482 12.7845 144.515 12.7312 144.594 12.7312C144.674 12.7312 144.681 12.8401 144.681 12.943C144.646 13.3822 144.583 13.819 144.497 14.2509C144.411 14.6018 144.272 14.6018 143.755 14.6018C142.739 14.6018 141.947 14.5691 141.408 14.5534C140.869 14.5389 140.49 14.5232 140.291 14.5232H139.713C139.423 14.5232 139.145 14.5534 138.927 14.5534C138.793 14.5534 138.71 14.5232 138.71 14.4481C138.71 14.4312 138.713 14.4155 138.719 14.3997C138.724 14.3852 138.732 14.372 138.743 14.361C138.753 14.3498 138.767 14.3409 138.781 14.3351C138.796 14.3293 138.811 14.3265 138.827 14.3271C138.946 14.3271 139.112 14.2812 139.235 14.2703C139.499 14.2219 139.531 13.9448 139.596 13.5479C139.675 12.5703 139.702 11.5902 139.676 10.6102L139.665 8.22412ZM148.551 8.22412C148.551 6.10668 148.551 5.72434 148.522 5.29359C148.493 4.86285 148.417 4.6015 147.972 4.53737C147.819 4.51927 147.666 4.50918 147.512 4.50712C147.486 4.50151 147.462 4.48815 147.444 4.46875C147.425 4.44935 147.413 4.4248 147.408 4.39822C147.408 4.31353 147.462 4.27965 147.622 4.27965C148.232 4.27965 149.068 4.31474 149.136 4.31474C149.205 4.31474 150.07 4.27965 150.463 4.27965C150.616 4.27965 150.68 4.31474 150.68 4.39701C150.677 4.42436 150.665 4.44981 150.645 4.46961C150.627 4.4896 150.603 4.5028 150.576 4.50712C150.463 4.5051 150.349 4.51525 150.239 4.53737C149.878 4.61239 149.791 4.80961 149.759 5.29359C149.725 5.77758 149.729 6.10668 149.729 8.22412V9.03721H149.791C150.009 8.78312 152.41 6.29907 152.908 5.75459C153.295 5.35046 153.649 4.99836 153.649 4.77936C153.649 4.56036 153.584 4.52527 153.48 4.51075C153.45 4.50419 153.423 4.48905 153.402 4.46719C153.381 4.44456 153.366 4.41652 153.36 4.38612C153.36 4.31837 153.414 4.28449 153.512 4.28449C153.784 4.28449 154.202 4.31837 154.517 4.31837C154.6 4.31837 155.49 4.28449 155.826 4.28449C155.957 4.28449 156.021 4.31837 156.021 4.38612C156.021 4.43936 155.993 4.49139 155.881 4.49139C155.623 4.51075 155.371 4.57609 155.136 4.68498C154.583 4.94512 154.322 5.24398 153.729 5.81871C153.392 6.14056 151.097 8.43949 150.799 8.77949C151.161 9.15821 153.952 12.0996 154.502 12.6284C155.639 13.6919 155.794 13.8649 156.431 14.1408C156.696 14.2461 156.975 14.3102 157.259 14.3308C157.352 14.3308 157.428 14.3792 157.428 14.4518C157.428 14.5244 157.367 14.557 157.135 14.557H156.449C156.064 14.557 155.826 14.557 155.511 14.5268C154.811 14.4627 154.455 14.1493 153.88 13.6992C153.306 13.2491 150.438 10.0875 149.791 9.29493H149.714V10.6259C149.714 11.9254 149.714 13.0035 149.777 13.5625C149.827 13.9605 149.885 14.2207 150.298 14.2848C150.469 14.3138 150.643 14.3332 150.819 14.3417C150.841 14.3418 150.864 14.3491 150.882 14.3626C150.901 14.376 150.915 14.3949 150.923 14.4167C150.928 14.4315 150.93 14.4471 150.93 14.4627C150.93 14.5232 150.865 14.5691 150.716 14.5691C150.055 14.5691 149.242 14.5232 149.139 14.5232C149.039 14.5232 148.218 14.5691 147.805 14.5691C147.665 14.5691 147.595 14.5389 147.595 14.4627C147.594 14.4476 147.596 14.4325 147.6 14.4179C147.604 14.403 147.612 14.3894 147.623 14.378C147.632 14.3665 147.644 14.3573 147.658 14.351C147.671 14.3448 147.686 14.3415 147.701 14.3417C147.839 14.3356 147.977 14.3163 148.112 14.2848C148.369 14.2207 148.403 13.9605 148.475 13.5625C148.543 13.0035 148.543 11.9254 148.543 10.6247L148.551 8.22412ZM160.738 10.6247C160.738 11.9254 160.738 13.0035 160.788 13.5625C160.838 13.9605 160.885 14.2207 161.287 14.2848C161.479 14.3114 161.775 14.3417 161.894 14.3417C161.909 14.3416 161.924 14.3448 161.937 14.3511C161.951 14.3574 161.963 14.3665 161.972 14.378C161.983 14.3901 161.991 14.4022 161.995 14.4179C161.999 14.4324 162.001 14.4469 161.999 14.4627C161.999 14.5232 161.941 14.5691 161.794 14.5691C161.037 14.5691 160.17 14.5232 160.1 14.5232C160.032 14.5232 159.19 14.5691 158.773 14.5691C158.64 14.5691 158.561 14.5389 158.561 14.4627C158.559 14.4317 158.569 14.4012 158.589 14.378C158.599 14.3667 158.611 14.3576 158.626 14.3513C158.639 14.345 158.654 14.3418 158.669 14.3417C158.808 14.336 158.946 14.3169 159.081 14.2848C159.345 14.2207 159.385 13.9605 159.443 13.5625C159.507 13.0035 159.529 11.9254 159.529 10.6247V8.22412C159.529 6.10668 159.529 5.72434 159.493 5.29359C159.457 4.86285 159.36 4.61602 159.062 4.56036C158.928 4.53136 158.792 4.51515 158.654 4.51196C158.626 4.50902 158.6 4.49618 158.58 4.47566C158.56 4.45562 158.546 4.42918 158.543 4.40064C158.543 4.31837 158.607 4.28449 158.759 4.28449C159.204 4.28449 160.047 4.31837 160.114 4.31837C160.184 4.31837 161.052 4.28449 161.468 4.28449C161.62 4.28449 161.677 4.31837 161.677 4.40064C161.673 4.42785 161.66 4.45306 161.641 4.47324C161.622 4.4921 161.599 4.50513 161.572 4.51075C161.461 4.50846 161.35 4.5186 161.24 4.541C160.878 4.61723 160.791 4.81324 160.766 5.29722C160.741 5.78121 160.766 6.11031 160.766 8.22775L160.738 10.6247ZM44.6255 32.1692C43.1471 30.7862 42.7775 28.9592 42.7775 27.4431C42.7832 25.8201 43.391 24.2581 44.4816 23.0643C45.3995 22.1048 46.7915 21.3522 49.1423 21.3522C49.8863 21.351 50.6303 21.4151 51.3623 21.5458C51.8783 21.6619 52.4003 21.743 52.9259 21.7878C53.0915 21.7878 53.1203 21.8628 53.1203 21.9608C53.1203 22.0588 53.0771 22.2778 53.0411 22.8561C53.0051 23.4357 53.0087 24.2633 52.9931 24.5053C52.9799 24.7473 52.9475 24.8381 52.8611 24.8381C52.7735 24.8381 52.7375 24.7328 52.7375 24.5053C52.7437 24.2015 52.6894 23.8995 52.5779 23.6172C52.4672 23.3378 52.301 23.0842 52.0895 22.8719C51.5579 22.3952 50.3795 21.9608 49.0379 21.9608C47.0051 21.9608 46.0547 22.5887 45.5195 23.1332C44.3987 24.2488 44.1455 25.6741 44.1455 27.2919C44.135 28.0547 44.2698 28.8126 44.5427 29.5242C44.8151 30.2333 45.2195 30.8794 45.7331 31.4239C46.2455 31.9683 46.8575 32.4003 47.5307 32.6955C48.2023 32.9909 48.9269 33.1441 49.6595 33.1456C50.8103 33.1456 51.7139 33.0053 52.3211 32.3434C52.6115 31.9502 52.8071 31.4904 52.8923 31.0004C52.9259 30.8189 52.9475 30.7632 53.0411 30.7632C53.1347 30.7632 53.1491 30.8721 53.1491 31.0016C53.0771 31.6901 52.9643 32.3737 52.8095 33.0464C52.7231 33.3525 52.6895 33.3792 52.4195 33.5123C51.5253 33.7853 50.5936 33.9127 49.6595 33.8898C47.3747 33.9019 45.8339 33.3078 44.6255 32.1692ZM59.3075 23.6741C59.4815 23.2155 59.5355 23.1441 59.6375 23.1441C59.7383 23.1441 59.8139 23.3329 59.9555 23.6354C60.1943 24.2101 62.3495 29.8255 63.1775 31.8897C63.6731 33.0997 64.0307 33.2739 64.3235 33.3755C64.4987 33.4251 64.6787 33.4493 64.8587 33.4481C64.9307 33.4481 65.0291 33.4844 65.0291 33.5691C65.0291 33.6514 64.8767 33.678 64.7255 33.678C64.5731 33.678 63.5279 33.678 62.5991 33.6441C62.3387 33.6441 62.1215 33.6441 62.1215 33.5534C62.1215 33.4626 62.1503 33.4856 62.2151 33.4481C62.2511 33.436 62.2837 33.4154 62.3102 33.388C62.3366 33.3607 62.3563 33.3273 62.3675 33.2908C62.3795 33.2541 62.3831 33.2151 62.3781 33.1768C62.3731 33.1385 62.3597 33.1017 62.3387 33.0694L61.1159 29.961C61.1066 29.9372 61.0897 29.9173 61.0679 29.9042C61.0463 29.891 61.0209 29.8859 60.9959 29.8896H57.8903C57.8586 29.8895 57.8277 29.9002 57.8027 29.9199C57.777 29.9401 57.7586 29.9681 57.7499 29.9997L56.9903 32.1692C56.8691 32.4596 56.7971 32.7693 56.7767 33.0851C56.7767 33.361 57.0047 33.4626 57.2327 33.4626H57.3587C57.4667 33.4626 57.4967 33.5159 57.4967 33.5836C57.4967 33.6514 57.4163 33.6925 57.2927 33.6925C56.9759 33.6925 56.2415 33.6441 56.0891 33.6441C55.9379 33.6441 55.2731 33.6925 54.7259 33.6925C54.5567 33.6925 54.4655 33.6599 54.4655 33.5836C54.4673 33.5512 54.481 33.5205 54.5039 33.4977C54.5263 33.4753 54.5564 33.4628 54.5879 33.4626C54.72 33.4626 54.8519 33.4518 54.9839 33.4324C55.5971 33.3574 55.8539 32.8734 56.1191 32.1849L59.3075 23.6741ZM60.8087 29.3452C60.8699 29.3452 60.8699 29.3113 60.8519 29.2472L59.5175 25.5265C59.4455 25.3148 59.3699 25.3148 59.2967 25.5265L58.0391 29.2472C58.0391 29.3113 58.0391 29.3452 58.0823 29.3452H60.8087ZM67.5493 27.3342C67.5493 25.2168 67.5493 24.8344 67.5251 24.4037C67.4989 23.9717 67.4162 23.7116 66.9779 23.6475C66.8627 23.6475 66.6383 23.6172 66.5075 23.6172C66.4818 23.6106 66.4585 23.5968 66.4403 23.5773C66.4219 23.5577 66.409 23.5335 66.4031 23.5071C66.4031 23.4236 66.4679 23.3897 66.6191 23.3897C67.2313 23.3897 68.0662 23.4236 68.1825 23.4236C68.4682 23.4236 69.4778 23.3897 70.0909 23.3897C71.8198 23.3897 72.4308 23.9499 72.6587 24.146C72.8711 24.3565 73.0405 24.6094 73.1568 24.8889C73.2717 25.1696 73.3329 25.4697 73.3356 25.7758C73.3356 27.7238 71.9253 29.016 69.8637 29.016C69.7353 29.0234 69.6062 29.0234 69.4778 29.016C69.422 29.016 69.3393 28.9555 69.3393 28.8914C69.3393 28.8273 69.4234 28.7511 69.701 28.7511C71.1482 28.7511 72.2002 27.7867 72.2002 26.5586C72.215 26.1786 72.1545 25.7994 72.0228 25.443C71.8917 25.0899 71.6914 24.7673 71.4332 24.4944C71.1966 24.2572 70.9116 24.0755 70.597 23.962C70.2858 23.8497 69.9537 23.8091 69.625 23.8435C69.3709 23.8511 69.1182 23.8815 68.8688 23.9342C68.7935 23.9342 68.7686 24.0516 68.7686 24.1956V29.7348C68.7686 31.0318 68.7686 32.1087 68.8258 32.6725C68.8688 33.0513 68.9495 33.3259 69.3575 33.3913C69.5423 33.4179 69.8354 33.4481 69.9578 33.4481C69.9873 33.4498 70.0156 33.4633 70.0357 33.4856C70.0559 33.5086 70.0673 33.5383 70.0667 33.5691C70.0667 33.6296 70.0041 33.678 69.8495 33.678C69.1256 33.678 68.2295 33.6296 68.1684 33.6296C68.1059 33.6296 67.2488 33.678 66.8411 33.678C66.6971 33.678 66.6275 33.6441 66.6275 33.5691C66.6253 33.5389 66.6347 33.509 66.6539 33.4856C66.6631 33.4745 66.6745 33.4653 66.6873 33.4587C66.7 33.4521 66.714 33.4481 66.7283 33.4469C66.8675 33.4433 67.0055 33.4227 67.1411 33.3913C67.398 33.3271 67.4337 33.0694 67.5022 32.6725C67.5708 32.1087 67.5708 31.0318 67.5708 29.7348L67.5493 27.3342ZM78.0443 29.7348C78.0443 31.0318 78.0443 32.1087 78.1041 32.6725C78.1525 33.0513 78.203 33.3259 78.5942 33.3913C78.7918 33.4179 79.0896 33.4481 79.2045 33.4481C79.2193 33.4486 79.2341 33.4521 79.2476 33.4583C79.261 33.4645 79.2731 33.4734 79.2825 33.4844C79.2933 33.4959 79.3007 33.5092 79.306 33.5237C79.3114 33.5383 79.3134 33.5537 79.3128 33.5691C79.3128 33.6296 79.255 33.678 79.1003 33.678C78.3515 33.678 77.4837 33.6296 77.4178 33.6296C77.3533 33.6296 76.4996 33.678 76.0909 33.678C75.9464 33.678 75.8745 33.6441 75.8745 33.5691C75.8738 33.5386 75.8839 33.5088 75.9034 33.4856C75.9229 33.4635 75.9497 33.4501 75.9793 33.4481C76.1185 33.4433 76.2549 33.4239 76.3907 33.3913C76.6549 33.3271 76.6992 33.0694 76.753 32.6725C76.8182 32.1087 76.8323 31.0318 76.8323 29.7348V27.333C76.8323 25.2156 76.8323 24.8332 76.8001 24.4025C76.7678 23.9705 76.663 23.7249 76.3658 23.6729C76.2307 23.6399 76.0929 23.622 75.9538 23.6196C75.9269 23.616 75.902 23.6032 75.8832 23.5833C75.8644 23.5634 75.8523 23.538 75.8482 23.5107C75.8482 23.426 75.9141 23.3922 76.0694 23.3922C76.507 23.3922 77.3533 23.426 77.4252 23.426C77.4972 23.426 78.3589 23.3922 78.7703 23.3922C78.9296 23.3922 78.9841 23.426 78.9841 23.5095C78.98 23.5369 78.9673 23.5623 78.9478 23.5821C78.9296 23.6012 78.9054 23.6139 78.8792 23.6184C78.7669 23.6163 78.654 23.6268 78.5438 23.6499C78.1814 23.7249 78.0981 23.9221 78.0658 24.4061C78.0336 24.8901 78.0658 25.2192 78.0658 27.3366L78.0443 29.7323V29.7348ZM86.0146 29.7348C86.0146 31.0318 86.0146 32.1087 86.0744 32.6725C86.1194 33.0513 86.1806 33.3259 86.5967 33.3913C86.7802 33.4179 87.0854 33.4481 87.2037 33.4481C87.2192 33.4467 87.2353 33.4489 87.2494 33.4546C87.2642 33.4603 87.2776 33.4692 87.2877 33.4808C87.2985 33.4926 87.3066 33.5067 87.3113 33.5219C87.316 33.5372 87.3173 33.5533 87.3153 33.5691C87.3153 33.6296 87.2555 33.678 87.0995 33.678C86.3762 33.678 85.5084 33.6296 85.4318 33.6296C85.3558 33.6296 84.4376 33.678 84.0397 33.678C83.8884 33.678 83.8333 33.6441 83.8333 33.5691C83.8333 33.4929 83.8548 33.4699 83.9348 33.4699C84.0706 33.4639 84.205 33.4409 84.3361 33.4021C84.6036 33.3416 84.6984 33.0694 84.7273 32.6725C84.7919 32.1087 84.7919 31.0318 84.7919 29.7348V24.0213L82.8465 24.0552C82.0069 24.0552 81.689 24.1641 81.4873 24.4787C81.3993 24.6162 81.3273 24.7636 81.2736 24.9179C81.2413 25.0268 81.1976 25.0425 81.1358 25.0425C81.1223 25.0414 81.1095 25.0376 81.0974 25.0314C81.086 25.0251 81.0753 25.0166 81.0672 25.0062C81.0504 24.9859 81.041 24.9601 81.0417 24.9336C81.0417 24.7885 81.3058 23.5712 81.3347 23.4623C81.3636 23.3522 81.4282 23.201 81.4725 23.201C81.6668 23.27 81.8664 23.3232 82.0695 23.3595C82.4486 23.4079 82.9655 23.4272 83.1248 23.4272H88.1878C88.5098 23.4304 88.8311 23.4078 89.1491 23.3595C89.348 23.3329 89.4717 23.299 89.5329 23.299C89.594 23.299 89.594 23.3788 89.594 23.4623C89.594 23.8774 89.551 24.8489 89.551 25.0111C89.551 25.1744 89.4825 25.1865 89.4206 25.1865C89.3601 25.1865 89.3339 25.1405 89.3158 24.9518V24.8006C89.2653 24.3892 88.9763 24.0818 87.6924 24.0443L86.0112 24.0104L86.0146 29.7336V29.7348ZM94.7471 23.6729C94.9138 23.2155 94.979 23.1441 95.0664 23.1441C95.1525 23.1441 95.2533 23.3329 95.3877 23.6354C95.6338 24.2101 97.7929 29.8255 98.6156 31.8897C99.1057 33.0997 99.474 33.2739 99.7631 33.3755C99.9358 33.4251 100.116 33.4493 100.295 33.4481C100.379 33.4481 100.465 33.4844 100.465 33.5691C100.465 33.6514 100.309 33.678 100.162 33.678C100.012 33.678 98.9638 33.678 98.0315 33.6441C97.7747 33.6441 97.5636 33.6441 97.5636 33.5534C97.5636 33.4626 97.5932 33.4856 97.6544 33.4481C97.69 33.4349 97.7216 33.4135 97.7472 33.3858C97.7727 33.3581 97.7915 33.3247 97.8023 33.2884C97.8137 33.2522 97.8171 33.2141 97.8124 33.1765C97.8076 33.1388 97.7949 33.1028 97.7747 33.0706L96.5701 29.9465C96.56 29.9215 96.5419 29.9006 96.5184 29.8872C96.4955 29.8747 96.4693 29.8704 96.4438 29.8751H93.3409C93.3093 29.8752 93.2784 29.8858 93.2528 29.9054C93.228 29.9253 93.2091 29.9529 93.2004 29.984L92.4374 32.1547C92.3245 32.4463 92.2573 32.756 92.2378 33.0694C92.2378 33.3453 92.4697 33.4481 92.6976 33.4481H92.8199C92.9255 33.4481 92.9544 33.5002 92.9544 33.5691C92.9544 33.6369 92.8824 33.678 92.7588 33.678C92.4374 33.678 91.7061 33.6296 91.5468 33.6296C91.3881 33.6296 90.7402 33.678 90.1869 33.678C90.0216 33.678 89.9349 33.6441 89.9349 33.5691C89.9349 33.5365 89.9469 33.505 89.9711 33.4832C89.9819 33.472 89.9947 33.463 90.0088 33.4567C90.0229 33.4505 90.0384 33.4472 90.0538 33.4469C90.1856 33.4469 90.3193 33.436 90.4511 33.4179C91.0628 33.3416 91.3236 32.8577 91.5791 32.1692L94.7471 23.6729ZM96.2468 29.3452C96.3073 29.3452 96.3073 29.3113 96.2918 29.2472L94.9609 25.5265C94.8816 25.3148 94.8083 25.3148 94.729 25.5265L93.474 29.2472C93.474 29.3113 93.474 29.3452 93.5217 29.3452H96.2468ZM104.244 29.7565C104.244 31.7578 104.276 32.5745 104.522 32.8165C104.768 33.0585 105.246 33.1372 106.309 33.1372C107.01 33.1372 107.611 33.1154 107.933 32.7185C108.096 32.4971 108.205 32.237 108.251 31.9623C108.251 31.8667 108.315 31.7844 108.384 31.7844C108.453 31.7844 108.482 31.8522 108.482 31.9962C108.447 32.454 108.381 32.9089 108.283 33.3574C108.193 33.6744 108.146 33.7349 107.423 33.7349C106.464 33.7349 105.715 33.7349 105.086 33.6816C104.458 33.6296 104.001 33.6514 103.619 33.6514H103.068C102.812 33.6514 102.5 33.6853 102.284 33.6853C102.15 33.6853 102.074 33.6514 102.074 33.5764C102.073 33.5454 102.083 33.5149 102.103 33.4917C102.113 33.4803 102.125 33.4712 102.139 33.4649C102.153 33.4587 102.168 33.4554 102.182 33.4554C102.321 33.4493 102.459 33.43 102.595 33.3985C102.852 33.3344 102.883 33.0767 102.956 32.6798C103.031 31.7034 103.056 30.7221 103.032 29.742V27.3342C103.032 25.2168 103.032 24.8344 103.003 24.4037C102.974 23.9717 102.895 23.7116 102.446 23.6475C102.297 23.6294 102.146 23.6193 101.995 23.6172C101.968 23.6126 101.942 23.5995 101.923 23.5797C101.904 23.5595 101.892 23.5343 101.887 23.5071C101.887 23.4236 101.947 23.3897 102.096 23.3897C102.714 23.3897 103.542 23.4236 103.63 23.4236C103.716 23.4236 104.714 23.3897 105.112 23.3897C105.246 23.3897 105.325 23.4236 105.325 23.5071C105.325 23.5906 105.264 23.6015 105.224 23.6015C105.126 23.6015 104.927 23.6015 104.776 23.6317C104.377 23.708 104.302 23.9197 104.269 24.388C104.237 24.8574 104.269 25.201 104.269 27.3185L104.244 29.7565Z" fill="white"/>
<path d="M15.0324 0L0 9.07466L15.0324 18.153V0Z" fill="#E50012"/>
<path d="M15.0324 18.153L0 27.2313L15.0324 36.2987V18.153Z" fill="#EE835C"/>
<path d="M15.0324 18.153L0 9.07471V27.2313L15.0324 18.153Z" fill="#F4AF8F"/>
<path d="M15.0336 18.153L30.0696 9.07466L15.0348 0V18.153H15.0336Z" fill="#EE835C"/>
<path d="M15.0336 36.2987L30.0696 27.2313L15.0336 18.153V36.2987Z" fill="#E50012"/>
</g>
</svg>
