<?xml version="1.0" encoding="UTF-8"?>
<svg xmlns="http://www.w3.org/2000/svg" width="307" height="42" viewBox="0 0 307 42" fill="none">
  <g clip-path="url(#clip0_115_10691)">
    <path d="M50.8399 14.7662L43.5122 18.0706C42.8343 13.5924 40.6922 9.44962 37.3334 6.19457C33.0866 2.09452 27.4467 -0.0985264 21.434 0.00339935C15.4349 0.115189 9.87972 2.52195 5.78201 6.78968C-1.86435 14.7563 -1.93892 27.2965 5.62271 35.3355C5.81251 35.5393 6.01248 35.7432 6.20228 35.9372C10.1712 39.8564 15.4755 41.9968 21.19 41.9968C21.4137 41.9968 21.6238 41.9968 21.8441 41.987C27.8873 41.8127 33.6322 39.1922 37.6012 34.793L53.0735 17.63L58.9574 11.11L50.8366 14.7629L50.8399 14.7662ZM41.1871 25.4684L25.9893 32.3139C19.9359 35.0396 12.6285 32.6624 9.70009 27.0072C8.62567 24.916 8.1376 22.5685 8.30707 20.2011C8.77141 13.7239 14.1808 8.48625 20.8985 8.0391C24.7217 7.78264 28.355 9.02876 31.1309 11.5375C33.5407 13.7009 35.0388 16.66 35.3778 19.7934L37.1097 19.0076C36.6149 15.6802 34.9439 12.5699 32.368 10.2552C29.2092 7.40781 25.1013 6.01044 20.7731 6.29649C13.1572 6.80941 7.01912 12.7343 6.49377 20.0926C6.30396 22.7657 6.85304 25.4289 8.07998 27.7963C10.5 32.4684 15.5162 35.1941 20.7222 35.1941C22.7525 35.1941 24.8098 34.7765 26.7519 33.9085L38.2451 28.7366L34.866 32.4914C31.5614 36.1542 26.7858 38.3374 21.7492 38.4787C16.8042 38.6234 12.2116 36.8479 8.80869 33.4811C8.63922 33.3167 8.48331 33.1523 8.31385 32.9813C2.03 26.2772 2.08423 15.8216 8.45281 9.18001C11.8659 5.61918 16.5025 3.61026 21.5086 3.51819C26.5248 3.42613 31.2258 5.25093 34.7643 8.68024C37.8283 11.6394 39.6856 15.506 40.0449 19.6389L37.2555 20.8949L36.686 21.1481L32.4087 23.0748C32.5375 22.4435 32.5985 21.7991 32.5985 21.1481C32.5985 18.2711 31.4054 15.598 29.2498 13.6286C27.0942 11.6492 24.2641 10.6398 21.2849 10.7944C15.8755 11.0706 11.4185 15.3745 11.1338 20.599C11.1236 20.8028 11.1134 21.0067 11.1236 21.2105C11.1439 24.4952 12.8895 27.5266 15.8145 29.312C17.5261 30.3543 19.458 30.8836 21.4035 30.8836C22.8914 30.8836 24.3929 30.568 25.7859 29.9433L44.9662 21.3026L41.1973 25.475L41.1871 25.4684ZM28.955 21.1448C28.955 22.6342 28.4499 24.0842 27.5314 25.2678L24.237 26.7474C22.1458 27.6845 19.7156 27.5332 17.7498 26.3397C15.8585 25.1758 14.7604 23.2984 14.7502 21.1875C14.7502 21.056 14.7502 20.9113 14.7604 20.7798C14.9502 17.3308 17.8854 14.4834 21.4645 14.2993C21.5933 14.2993 21.7289 14.2894 21.8577 14.2894C23.6845 14.2894 25.4063 14.9536 26.7349 16.1767C28.172 17.482 28.9516 19.2476 28.9516 21.1448H28.955Z" fill="#D2A361"></path>
    <path d="M95.2609 40.8228H88.9432L85.6725 34.4804H84.2557C81.6188 34.4804 79.4666 34.1746 77.8092 33.5663C76.1518 32.9548 74.8808 32.1262 73.9962 31.0807C73.1116 30.0351 72.5693 28.8087 72.3625 27.3982C72.1558 25.9909 72.1761 24.4884 72.4168 22.8904L72.7082 21.0591C72.9489 19.4611 73.3793 17.9585 73.9962 16.548C74.6131 15.1375 75.5146 13.9111 76.7009 12.8655C77.8872 11.82 79.3886 10.9914 81.2053 10.3832C83.022 9.7716 85.2488 9.46582 87.8891 9.46582H89.1974C91.8377 9.46582 93.9865 9.7716 95.6439 10.3832C97.3013 10.9914 98.5723 11.82 99.4569 12.8655C100.342 13.9111 100.884 15.1375 101.091 16.548C101.297 17.9553 101.28 19.4611 101.036 21.0591L100.745 22.8904C100.552 24.0642 100.267 25.1986 99.8908 26.2902C99.5146 27.3817 99.0028 28.3878 98.3486 29.3019C97.6979 30.2192 96.8844 31.0412 95.9151 31.7678C94.9457 32.4978 93.7967 33.083 92.4647 33.5302L95.4779 39.4123L95.2609 40.8228ZM78.8463 24.0872C78.8463 24.7218 78.9378 25.3268 79.1175 25.9022C79.2971 26.4776 79.6428 26.9839 80.1512 27.4179C80.6596 27.8519 81.3612 28.2004 82.2594 28.4569C83.1542 28.7166 84.3167 28.8449 85.747 28.8449C87.6586 28.8449 89.1974 28.6443 90.3566 28.2465C91.5191 27.8486 92.4173 27.2667 93.0443 26.5006C93.6747 25.7378 94.0916 24.7974 94.2984 23.6828C94.5051 22.5682 94.6068 21.3057 94.6068 19.8951C94.6068 19.2606 94.5153 18.6556 94.3356 18.0802C94.1526 17.5048 93.8069 17.0018 93.2985 16.5645C92.7901 16.1305 92.0885 15.7852 91.1937 15.5255C90.2989 15.2657 89.1364 15.1375 87.7061 15.1375C85.7945 15.1375 84.2557 15.3381 83.0932 15.7392C81.9306 16.137 81.0359 16.719 80.4054 17.4818C79.775 18.2446 79.3581 19.1849 79.1548 20.2995C78.948 21.4142 78.8463 22.68 78.8463 24.0872Z" fill="white"></path>
    <path d="M105.679 16.1602H111.488L110.217 24.9685C110.146 25.511 110.095 26.0437 110.071 26.573C110.048 27.1024 110.149 27.5726 110.38 27.9803C110.61 28.3912 111.027 28.7266 111.634 28.9864C112.241 29.2461 113.122 29.3743 114.284 29.3743C115.447 29.3743 116.488 29.2395 117.409 28.9666C118.328 28.697 119.213 28.2926 120.06 27.7534L121.731 16.1602H127.54L124.998 33.7769H123.548L120.423 31.8732C119.867 32.3433 119.307 32.7445 118.752 33.0733C118.196 33.4021 117.613 33.6717 117.009 33.8821C116.403 34.0958 115.769 34.2471 115.101 34.3391C114.437 34.4345 113.705 34.4805 112.905 34.4805C111.065 34.4805 109.546 34.2536 108.346 33.7933C107.15 33.3363 106.221 32.7083 105.567 31.9093C104.913 31.1104 104.496 30.1766 104.316 29.108C104.133 28.0394 104.127 26.8952 104.296 25.6721L105.679 16.1602Z" fill="white"></path>
    <path d="M132.998 16.1599H131.544L129.002 33.7766H134.815L136.991 18.6259L132.998 16.1599ZM132.015 10.4192L132.09 9.99506C132.212 9.26842 132.52 8.64701 133.015 8.12751C133.513 7.61131 134.368 7.35156 135.578 7.35156H135.866C137.076 7.35156 137.869 7.61131 138.245 8.12751C138.621 8.64372 138.75 9.26514 138.628 9.99506L138.553 10.4192C138.435 11.1458 138.126 11.7705 137.628 12.2867C137.133 12.8029 136.279 13.0594 135.069 13.0594H134.778C133.568 13.0594 132.775 12.7997 132.398 12.2867C132.025 11.7705 131.897 11.1491 132.015 10.4192Z" fill="white"></path>
    <path d="M143.247 16.1599H141.793L139.251 33.7766H145.064L147.243 18.6259L143.247 16.1599ZM142.267 10.4192L142.339 9.99506C142.461 9.26842 142.769 8.64701 143.264 8.12751C143.759 7.61131 144.613 7.35156 145.826 7.35156H146.118C147.328 7.35156 148.117 7.61131 148.494 8.12751C148.87 8.64372 148.999 9.26514 148.877 9.99506L148.806 10.4192C148.684 11.1458 148.375 11.7705 147.877 12.2867C147.382 12.8029 146.528 13.0594 145.318 13.0594H145.026C143.816 13.0594 143.023 12.7997 142.647 12.2867C142.271 11.7705 142.145 11.1491 142.267 10.4192Z" fill="white"></path>
    <path d="M150.301 25.6726L150.521 24.2654C150.714 23.0456 151.046 21.9014 151.517 20.8295C151.989 19.7609 152.68 18.8272 153.588 18.0282C154.497 17.2292 155.646 16.6012 157.039 16.1442C158.432 15.6839 160.143 15.457 162.177 15.457H163.194C164.502 15.457 165.766 15.5327 166.99 15.6872C168.21 15.8384 169.403 16.0554 170.569 16.3382L169.806 21.5857C168.498 21.2109 167.18 20.9479 165.848 20.7933C164.516 20.6421 163.34 20.5665 162.323 20.5665C160.967 20.5665 159.879 20.6848 159.055 20.9183C158.232 21.155 157.601 21.5134 157.168 21.9934C156.73 22.4735 156.442 23.0719 156.296 23.7886C156.151 24.5054 156.076 25.357 156.076 26.3434C156.076 26.7905 156.137 27.1949 156.259 27.5599C156.378 27.9249 156.622 28.2405 156.984 28.5101C157.347 28.7797 157.856 28.9901 158.51 29.1447C159.164 29.2992 160.011 29.3748 161.052 29.3748C162.092 29.3748 163.268 29.2992 164.648 29.1447C166.027 28.9901 167.42 28.7271 168.823 28.3523L168.061 33.5998C166.827 33.8826 165.573 34.0996 164.302 34.2541C163.031 34.4054 161.743 34.481 160.435 34.481H159.418C157.384 34.481 155.73 34.2541 154.459 33.7938C153.188 33.3368 152.216 32.7088 151.538 31.9098C150.86 31.1109 150.436 30.1771 150.267 29.1085C150.097 28.0399 150.111 26.8957 150.301 25.6726Z" fill="white"></path>
    <path d="M193.552 33.7763H187.96L184.801 27.5753H178.988L178.08 33.7763H172.271L176.084 7.35449H177.538L181.567 9.82044L179.751 22.3606H185.564L190.502 16.1596H196.094L195.915 17.5701L189.993 24.9679L193.769 32.3658L193.552 33.7763Z" fill="white"></path>
    <path d="M206.97 10.1729H212.637L215.25 25.7083L222.477 10.1729H227.086L229.706 25.7083L236.932 10.1729H242.599L242.382 11.5834L230.794 33.7769H226.323L223.459 18.5209L216.342 33.7769H211.871L206.75 11.5834L206.97 10.1729Z" fill="white"></path>
    <path d="M241.128 25.6716L241.345 24.2644C241.538 23.0446 241.87 21.9004 242.345 20.8285C242.819 19.7567 243.507 18.8262 244.416 18.0272C245.324 17.2282 246.473 16.6003 247.866 16.1432C249.259 15.6829 250.971 15.4561 253.004 15.4561H254.021C256.055 15.4561 257.709 15.6829 258.976 16.1432C260.247 16.6003 261.223 17.2282 261.901 18.0272C262.579 18.8262 263.003 19.76 263.172 20.8285C263.342 21.8971 263.332 23.0446 263.135 24.2644L262.918 25.6716C262.725 26.8948 262.393 28.039 261.918 29.1075C261.444 30.1761 260.762 31.1099 259.868 31.9089C258.973 32.7078 257.824 33.3358 256.417 33.7928C255.014 34.2499 253.296 34.48 251.259 34.48H250.242C248.208 34.48 246.554 34.2531 245.287 33.7928C244.016 33.3358 243.04 32.7078 242.362 31.9089C241.684 31.1099 241.26 30.1761 241.091 29.1075C240.921 28.039 240.935 26.8948 241.128 25.6716ZM246.903 26.3062C246.903 26.7304 246.964 27.1216 247.083 27.4866C247.205 27.8515 247.436 28.1738 247.774 28.4565C248.113 28.7393 248.581 28.9629 249.171 29.1273C249.764 29.2917 250.544 29.3739 251.513 29.3739C252.774 29.3739 253.791 29.2456 254.567 28.9859C255.339 28.7294 255.939 28.3513 256.363 27.8581C256.787 27.3649 257.065 26.7665 257.197 26.0596C257.329 25.356 257.397 24.5472 257.397 23.6298C257.397 23.209 257.336 22.8144 257.217 22.4495C257.095 22.0845 256.865 21.7623 256.526 21.4795C256.187 21.2001 255.719 20.9765 255.129 20.8121C254.536 20.6477 253.753 20.5655 252.784 20.5655C251.503 20.5655 250.479 20.6937 249.717 20.9535C248.954 21.2099 248.361 21.5848 247.937 22.0779C247.513 22.5711 247.232 23.1695 247.1 23.8764C246.968 24.5801 246.903 25.3922 246.903 26.3062Z" fill="white"></path>
    <path d="M282.61 15.7026L281.848 21.0225C281.339 20.9272 280.807 20.8581 280.248 20.8121C279.692 20.7661 279.112 20.7398 278.506 20.7398C276.543 20.7398 274.73 20.9864 273.059 21.4795L271.28 33.7764H265.467L268.009 16.1597H269.463L271.28 17.2874C272.537 16.6792 273.838 16.2189 275.184 15.9131C276.526 15.6106 277.997 15.4561 279.597 15.4561C280.153 15.4561 280.685 15.4791 281.193 15.5251C281.702 15.5711 282.173 15.6303 282.61 15.7026Z" fill="white"></path>
    <path d="M304.458 33.7763H298.866L295.704 27.5753H289.894L288.986 33.7763H283.177L286.99 7.35449H288.44L292.47 9.82044L290.657 22.3606H296.466L301.408 16.1596H307L306.817 17.5701L300.899 24.9679L304.672 32.3658L304.458 33.7763Z" fill="white"></path>
  </g>
  <defs>
    <clipPath id="clip0_115_10691">
      <rect width="307" height="42" fill="white"></rect>
    </clipPath>
  </defs>
</svg>
