<svg width="136" height="136" viewBox="0 0 136 136" fill="none" xmlns="http://www.w3.org/2000/svg">
<circle cx="68" cy="68" r="68" fill="black"/>
<path d="M31.3062 96.572C23.7195 95.9316 19.9261 92.0397 19.9261 84.8963C19.9261 80.6596 21.2562 76.1765 23.9165 71.4471C25.493 68.5897 27.4636 65.8063 29.8283 63.0967C32.2423 60.3872 34.8533 57.9486 37.6614 55.7809C40.5187 53.564 43.4253 51.8151 46.3812 50.5343C49.3863 49.2534 52.2683 48.6129 55.0271 48.6129C59.9043 48.6129 62.3429 50.4111 62.3429 54.0074C62.3429 56.4214 61.604 59.1063 60.126 62.0622C58.6481 65.0181 57.1455 66.8901 55.6183 67.6783C55.4705 67.7276 55.2981 67.7522 55.101 67.7522C54.9532 67.7522 54.8793 67.703 54.8793 67.6045L57.3179 63.614C58.9929 60.8552 59.8304 58.4412 59.8304 56.3721C59.8304 54.8942 59.4363 53.4901 58.6481 52.16C57.8599 50.8299 56.4558 50.1648 54.436 50.1648C51.9727 50.1648 49.4356 50.8545 46.8246 52.2339C44.2628 53.6133 41.775 55.4361 39.361 57.7023C36.947 59.9684 34.7548 62.4809 32.7842 65.2397C30.8136 67.9493 29.2371 70.6342 28.0548 73.2945C25.5423 78.9599 24.286 83.5416 24.286 87.0393C24.286 92.3107 26.9709 94.9463 32.3408 94.9463C37.4643 94.9463 44.4106 91.6456 53.1797 85.0441C55.1996 83.5169 57.786 81.3739 60.9389 78.6151C64.1411 75.8563 67.8852 72.5063 72.1712 68.5651C71.58 68.6144 70.8411 68.6883 69.9543 68.7868C69.0676 68.8361 68.033 68.9592 66.8506 69.1563C66.358 69.2548 65.89 69.3533 65.4466 69.4519C65.0032 69.5011 64.5845 69.5258 64.1904 69.5258C63.2051 69.4272 62.7863 69.1809 62.9341 68.7868C63.1312 66.964 64.0672 66.0526 65.7422 66.0526C67.2694 66.2497 68.6981 66.3975 70.0282 66.496C71.4076 66.5945 72.7131 66.6438 73.9447 66.6438C75.8661 64.8703 78.4032 62.407 81.5561 59.2541C84.7583 56.0519 88.5517 52.1354 92.9363 47.5045C98.6017 41.5435 102.05 38.563 103.282 38.563C103.824 38.563 104.095 39.0556 104.095 40.0409C104.095 40.435 104.045 40.9277 103.947 41.5188C103.848 42.11 103.701 42.7997 103.504 43.588C103.011 45.46 102.494 46.5931 101.952 46.9872C100.424 48.071 99.1436 49.4751 98.109 51.1993C97.1237 52.8743 96.1138 54.7464 95.0793 56.8155C94.0447 58.9339 93.0841 60.8306 92.1973 62.5056C91.3598 64.1313 90.5962 65.5846 89.9065 66.8655L97.0745 66.7177C98.848 66.7177 99.7348 66.8408 99.7348 67.0872C99.7348 67.1364 99.6855 67.2103 99.587 67.3089C98.7495 67.8508 95.2024 68.3434 88.9458 68.7868C84.3642 77.7037 82.0734 83.8125 82.0734 87.1132C82.0734 89.3794 82.7877 90.5125 84.2164 90.5125C84.7583 90.5125 85.448 90.1676 86.2855 89.4779C87.0738 88.8375 87.5664 88.5173 87.7635 88.5173C87.7635 88.4187 87.7881 88.3941 87.8374 88.4434C87.8866 88.4926 87.862 88.5173 87.7635 88.5173C87.5171 89.404 86.7782 90.1923 85.5466 90.882C84.3642 91.6209 83.108 91.9904 81.7778 91.9904C80.5462 91.9904 79.7333 91.5963 79.3392 90.8081C78.9451 90.0198 78.748 88.936 78.748 87.5566C78.748 82.5809 80.6447 76.2504 84.4381 68.5651L75.5705 68.7868C68.969 75.2405 62.3429 80.9059 55.6922 85.7831C45.1003 93.4684 36.9717 97.0647 31.3062 96.572ZM85.1032 66.6438C85.6944 65.5107 86.8767 63.4662 88.6502 60.5103C90.4238 57.5052 92.8131 53.6133 95.8182 48.8346L76.9006 66.5699L85.1032 66.6438Z" fill="white"/>
</svg>
